<svg id="Capa_1" enable-background="new 0 0 509.178 509.178" height="512" viewBox="0 0 509.178 509.178" width="512" xmlns="http://www.w3.org/2000/svg"><path d="m10.065 370.197 40.533-23.402v-48.843c0-11.848 9.605-21.452 21.452-21.452h364.376c11.848 0 21.452 9.605 21.452 21.452v153.375c0 11.848-9.605 21.452-21.452 21.452h-364.375c-11.848 0-21.452-9.604-21.452-21.452v-48.843l-40.533-23.402c-3.421-1.973-3.421-6.91-.001-8.885z" fill="#00f2a6"/><path d="m436.427 276.5h-30c11.848 0 21.452 9.605 21.452 21.452v153.375c0 11.848-9.605 21.452-21.452 21.452h30c11.848 0 21.452-9.605 21.452-21.452v-153.374c.001-11.848-9.604-21.453-21.452-21.453z" fill="#05e39c"/><path d="m194.546 276.5h-122.495c-11.848 0-21.452 9.605-21.452 21.452v48.843l-40.533 23.402c-3.42 1.975-3.42 6.911 0 8.886l40.533 23.402v48.843c0 11.848 9.605 21.452 21.452 21.452h122.495z" fill="#07b27b"/><path d="m499.113 130.095-40.533-23.402v-48.843c0-11.848-9.604-21.452-21.452-21.452h-364.377c-11.848 0-21.452 9.605-21.452 21.452v153.375c0 11.848 9.605 21.452 21.452 21.452h364.376c11.848 0 21.452-9.605 21.452-21.452v-48.843l40.533-23.402c3.421-1.974 3.421-6.91.001-8.885z" fill="#fee45a"/><path d="m499.113 130.095-40.533-23.402v-48.843c0-11.848-9.605-21.452-21.453-21.452h-121.547v196.28h121.547c11.848 0 21.453-9.605 21.453-21.452v-48.843l40.533-23.402c3.42-1.975 3.42-6.911 0-8.886z" fill="#fac600"/><path d="m499.113 130.095-40.533-23.402v-48.843c0-11.848-9.605-21.452-21.452-21.452h-30c11.848 0 21.453 9.605 21.453 21.452v39.112c0 6.021 3.212 11.585 8.427 14.596l6.825 3.941c14.656 8.462 14.656 29.616 0 38.078l-6.825 3.941c-5.215 3.011-8.427 8.575-8.427 14.596v39.112c0 11.848-9.605 21.452-21.453 21.452h30c11.848 0 21.453-9.605 21.453-21.452v-48.843l40.533-23.402c3.419-1.975 3.419-6.911-.001-8.886z" fill="#e8b800"/><path d="m383.223 183.652v-7.709c-13.165-1.423-22.772-9.014-22.772-26.805v-33.091c0-19.926 12.098-27.161 27.754-27.161s27.873 7.235 27.873 27.161v33.091c0 17.672-9.726 25.382-23.01 26.805v7.709c0 3.202-2.372 4.863-4.863 4.863s-4.982-1.661-4.982-4.863zm17.435-67.606c0-9.251-4.744-13.64-12.454-13.64-7.828 0-12.335 4.388-12.335 13.64v33.091c0 6.998 2.609 11.149 7.354 12.691v-6.286c0-3.321 2.491-4.744 4.981-4.744s4.863 1.423 4.863 4.744v6.286c4.745-1.542 7.591-5.693 7.591-12.691z"/><path d="m87.885 408.011c0-.237.119-.712.237-1.186l22.891-74.604c1.067-3.558 5.456-5.219 9.844-5.219 4.507 0 8.896 1.661 9.963 5.219l22.891 74.604c.119.474.237.83.237 1.186 0 3.677-5.575 6.405-9.726 6.405-2.609 0-4.626-.83-5.219-3.084l-4.507-15.775h-27.161l-4.507 15.775c-.593 2.253-2.609 3.084-5.219 3.084-4.15 0-9.724-2.609-9.724-6.405zm43.291-24.551-10.319-36.412-10.319 36.412z"/><path d="m502.863 123.6-36.783-21.237v-44.513c0-15.964-12.988-28.952-28.953-28.952h-293.876c-4.142 0-7.5 3.358-7.5 7.5s3.358 7.5 7.5 7.5h164.037v181.28h-234.537c-7.693 0-13.953-6.259-13.953-13.953v-153.375c0-7.693 6.259-13.952 13.953-13.952h40.5c4.142 0 7.5-3.358 7.5-7.5s-3.358-7.5-7.5-7.5h-40.5c-15.964 0-28.953 12.988-28.953 28.952v153.375c0 15.965 12.988 28.953 28.953 28.953h364.376c15.964 0 28.953-12.988 28.953-28.953v-44.512l36.783-21.237c3.955-2.283 6.315-6.372 6.315-10.938s-2.361-8.655-6.315-10.938zm-48.033 32.288c-2.32 1.34-3.75 3.816-3.75 6.495v48.843c0 7.694-6.259 13.953-13.953 13.953h-114.839v-181.281h114.839c7.693 0 13.953 6.259 13.953 13.952v48.843c0 2.679 1.43 5.156 3.75 6.495l36.979 21.35z"/><path d="m157.759 74.672h-42.082c-4.142 0-7.5 3.358-7.5 7.5s3.358 7.5 7.5 7.5h42.082c4.142 0 7.5-3.358 7.5-7.5s-3.358-7.5-7.5-7.5z"/><path d="m239.894 181.4h-42.082c-4.142 0-7.5 3.358-7.5 7.5s3.358 7.5 7.5 7.5h42.082c4.142 0 7.5-3.358 7.5-7.5s-3.358-7.5-7.5-7.5z"/><path d="m241.393 110.248h-125.716c-4.142 0-7.5 3.358-7.5 7.5s3.358 7.5 7.5 7.5h125.716c4.142 0 7.5-3.358 7.5-7.5s-3.358-7.5-7.5-7.5z"/><path d="m241.393 145.824h-125.716c-4.142 0-7.5 3.358-7.5 7.5s3.358 7.5 7.5 7.5h125.716c4.142 0 7.5-3.358 7.5-7.5s-3.358-7.5-7.5-7.5z"/><path d="m436.427 269h-147.334c-4.142 0-7.5 3.358-7.5 7.5s3.358 7.5 7.5 7.5h147.334c7.693 0 13.953 6.259 13.953 13.952v153.375c0 7.693-6.259 13.952-13.953 13.952h-234.537v-181.279h57.203c4.142 0 7.5-3.358 7.5-7.5s-3.358-7.5-7.5-7.5h-187.042c-15.964 0-28.953 12.988-28.953 28.952v44.513l-36.782 21.237c-3.955 2.283-6.316 6.372-6.316 10.938s2.361 8.655 6.315 10.938l36.783 21.237v44.512c0 15.964 12.988 28.952 28.953 28.952h364.376c15.964 0 28.953-12.988 28.953-28.952v-153.374c0-15.965-12.988-28.953-28.953-28.953zm-378.328 182.328v-48.843c0-2.679-1.43-5.156-3.75-6.495l-36.979-21.35 36.979-21.35c2.32-1.34 3.75-3.816 3.75-6.495v-48.843c0-7.693 6.259-13.952 13.953-13.952h114.838v181.28h-114.839c-7.693 0-13.952-6.259-13.952-13.952z"/><path d="m311.501 314.774h-42.082c-4.142 0-7.5 3.358-7.5 7.5s3.358 7.5 7.5 7.5h42.082c4.142 0 7.5-3.358 7.5-7.5s-3.357-7.5-7.5-7.5z"/><path d="m392.367 421.502h-42.082c-4.142 0-7.5 3.358-7.5 7.5s3.358 7.5 7.5 7.5h42.082c4.142 0 7.5-3.358 7.5-7.5s-3.358-7.5-7.5-7.5z"/><path d="m393.501 350.35h-125.716c-4.142 0-7.5 3.358-7.5 7.5s3.358 7.5 7.5 7.5h125.716c4.142 0 7.5-3.358 7.5-7.5s-3.357-7.5-7.5-7.5z"/><path d="m393.501 385.926h-125.716c-4.142 0-7.5 3.358-7.5 7.5s3.358 7.5 7.5 7.5h125.716c4.142 0 7.5-3.358 7.5-7.5s-3.357-7.5-7.5-7.5z"/></svg>