<svg id="Layer_1" enable-background="new 0 0 512 512" height="512" viewBox="0 0 512 512" width="512" xmlns="http://www.w3.org/2000/svg"><g><path d="m336 272v160c0 44.11-35.89 80-80 80s-80-35.89-80-80v-160c0-44.11 35.89-80 80-80s80 35.89 80 80z" fill="#acebe2"/><circle cx="256" cy="80" fill="#acebe2" r="80"/><g fill="#98d7ce"><path d="m336 272v160c0 44.11-35.89 80-80 80-5.48 0-10.83-.55-16-1.61 36.47-7.43 64-39.76 64-78.39v-160c0-38.63-27.53-70.96-64-78.39 5.17-1.06 10.52-1.61 16-1.61 44.11 0 80 35.89 80 80z"/><path d="m336 80c0 44.11-35.89 80-80 80-5.48 0-10.83-.55-16-1.61 36.47-7.43 64-39.76 64-78.39s-27.53-70.96-64-78.39c5.17-1.06 10.52-1.61 16-1.61 44.11 0 80 35.89 80 80z"/></g></g></svg>