<svg id="Capa_1" enable-background="new 0 0 512 512" height="512" viewBox="0 0 512 512" width="512" xmlns="http://www.w3.org/2000/svg"><g><path d="m442.234 254.759h-131.524c-15.981 0-28.936 12.955-28.936 28.936v220.805h164.31v-100.247h20.867c17.198 0 31.14-13.942 31.14-31.14v-62.497c0-30.849-25.008-55.857-55.857-55.857z" fill="#4980ac"/><path d="m330.752 404.253h115.332v28.495h-115.332z" fill="#407194"/><path d="m446.084 254.906v108.281h-69.053v41.066h89.92c2.15 0 4.249-.218 6.276-.633 6.723-1.375 13.072-5.026 17.753-10.7 1.587-1.922 2.947-4.038 4.04-6.307 1.968-4.084 3.071-8.664 3.071-13.501v-62.497c0-29.552-22.956-53.729-52.007-55.709z" fill="#5d91b9"/><g><path d="m278.656 30.694v102.347h180.73v-46.622c0-37.484-30.387-67.87-67.87-67.87h-56.827c-5.691 0-11.266-1.61-16.081-4.643l-4.451-2.804c-15.421-9.716-35.501 1.367-35.501 19.592z" fill="#be694e"/><path d="m341.597 175.146v84.495c0 13.053 10.582 23.634 23.634 23.634h7.579c13.053 0 23.634-10.582 23.634-23.634v-84.495z" fill="#ebae9d"/><g fill="#ffcdbe"><path d="m270.534 133.041c0 12.729 10.319 23.048 23.048 23.048h150.878c12.729 0 23.048-10.319 23.048-23.048s-10.319-23.048-23.048-23.048h-150.877c-12.73 0-23.049 10.319-23.049 23.048z"/><path d="m313.065 72.612v96.848c0 29.205 23.676 52.881 52.881 52.881h6.15c29.205 0 52.881-23.676 52.881-52.881v-62.807c0-20.457-16.584-37.041-37.041-37.041h-71.872c-1.656 0-2.999 1.343-2.999 3z"/></g></g><path d="m351.773 432.194h-206.327c-6.419 0-11.622-5.203-11.622-11.622v-170.269c0-6.419 5.203-11.622 11.622-11.622h206.326c6.419 0 11.622 5.203 11.622 11.622v170.268c.001 6.419-5.202 11.623-11.621 11.623z" fill="#80b6fc"/><path d="m351.773 238.681h-28.22c6.419 0 11.622 5.203 11.622 11.622v170.268c0 6.419-5.203 11.622-11.622 11.622h28.22c6.419 0 11.622-5.203 11.622-11.622v-170.268c0-6.419-5.203-11.622-11.622-11.622z" fill="#62a4fb"/><path d="m351.772 466.133h-206.326c-6.419 0-11.622-5.203-11.622-11.622v-170.268c0-6.419 5.203-11.622 11.622-11.622h206.326c6.419 0 11.625 5.203 11.625 11.621v170.269c0 6.419-5.206 11.622-11.625 11.622z" fill="#ddebfd"/><path d="m363.397 284.242v170.269c0 6.42-5.205 11.622-11.625 11.622h-28.222c6.42 0 11.62-5.203 11.62-11.623v-181.889h16.602c6.42 0 11.625 5.201 11.625 11.621z" fill="#bed9fd"/><g fill="#df646e"><path d="m220.502 309.612v57.401c0 3.771 4.136 6.08 7.346 4.102l46.579-28.701c3.054-1.882 3.054-6.322 0-8.204l-46.579-28.701c-3.211-1.977-7.346.332-7.346 4.103z"/><ellipse cx="217.367" cy="421.912" rx="15.627" ry="15.627" transform="matrix(.924 -.383 .383 .924 -144.915 115.302)"/></g><path d="m377.031 404.253h-22.528c-10.238 0-18.538-8.3-18.538-18.538v-22.528h41.066z" fill="#ffcdbe"/><path d="m244.823 495.084h-23.881c-6.012 0-10.887-4.874-10.887-10.887v-18.063h45.654v18.063c.001 6.013-4.873 10.887-10.886 10.887z" fill="#ffcdbe"/><ellipse cx="118.149" cy="198.527" fill="#f5de46" rx="104.24" ry="105.662"/><path d="m197.54 130.062c6.375 13.675 9.946 28.956 9.946 45.084 0 58.355-46.67 105.662-104.24 105.662-31.801 0-60.27-14.439-79.39-37.197 16.69 35.803 52.636 60.577 94.294 60.577 57.57 0 104.24-47.306 104.24-105.662-.001-26.12-9.357-50.023-24.85-68.464z" fill="#ecc52e"/><g><path d="m69.79 189.964v50.446c0 2.462 1.645 4.611 3.998 5.222l41.722 10.835c1.732.45 3.547.45 5.279 0l41.722-10.835c2.353-.611 3.998-2.76 3.998-5.222v-50.446z" fill="#407194"/><path d="m116.631 165.497-73.21 22.111c-2.313.698-2.313 4.018 0 4.717l73.21 22.111c.991.299 2.046.299 3.037 0l73.21-22.111c2.313-.698 2.313-4.018 0-4.717l-73.21-22.111c-.991-.299-2.046-.299-3.037 0z" fill="#5d91b9"/></g><g><path d="m370.108 194.687c6.783 0 13.229-2.623 18.148-7.385 2.976-2.881 3.053-7.629.172-10.604-2.881-2.976-7.629-3.054-10.604-.172-2.107 2.039-4.847 3.163-7.716 3.163h-2.184c-2.869 0-5.609-1.123-7.716-3.163-2.977-2.882-7.724-2.804-10.604.172-2.881 2.976-2.804 7.724.172 10.604 4.92 4.762 11.365 7.385 18.148 7.385z"/><path d="m219.316 377.775c1.867 1.042 3.937 1.561 6.005 1.561 2.244 0 4.486-.612 6.463-1.829l46.576-28.699c3.667-2.259 5.856-6.18 5.856-10.487s-2.189-8.228-5.856-10.487l-46.577-28.699c-3.796-2.339-8.573-2.441-12.467-.268-3.893 2.174-6.312 6.295-6.312 10.754v57.398c.001 4.46 2.419 8.581 6.312 10.756zm8.688-63.351 38.783 23.897-38.783 23.897z"/><path d="m311.298 414.414h-72.071c-3.122-9.081-11.743-15.628-21.869-15.628-10.127 0-18.748 6.547-21.871 15.629h-9.564c-4.142 0-7.5 3.359-7.499 7.501 0 4.142 3.358 7.499 7.5 7.499h9.564c3.123 9.08 11.744 15.624 21.87 15.624s18.746-6.545 21.869-15.624h72.071c4.141 0 7.5-3.357 7.5-7.499s-3.358-7.502-7.5-7.502zm-93.94 15.624c-4.481 0-8.126-3.645-8.126-8.126 0-4.482 3.645-8.128 8.126-8.128 4.48 0 8.125 3.646 8.125 8.128 0 4.481-3.645 8.126-8.125 8.126z"/><path d="m505.578 363.184v-52.554c0-34.935-28.422-63.357-63.357-63.357h-38.278v-26.536c17.11-10.671 28.526-29.653 28.526-51.261v-5.869h11.982c16.844 0 30.548-13.704 30.548-30.549 0-7.986-3.084-15.263-8.119-20.712v-25.905c0-22.567-9.996-43.762-27.424-58.151-3.194-2.637-7.921-2.185-10.558 1.009s-2.185 7.921 1.009 10.558c13.965 11.529 21.974 28.509 21.974 46.584v16.988c-2.38-.597-4.868-.918-7.43-.918h-12.183c-2.107-22.614-21.183-40.376-44.338-40.376h-71.868c-5.789 0-10.499 4.71-10.499 10.499v29.877h-11.985c-2.559 0-5.043.32-7.42.916v-72.713c0-5.783 3.024-10.905 8.088-13.7 5.066-2.798 11.016-2.626 15.906.453l4.456 2.813c6.016 3.79 12.959 5.794 20.077 5.794h56.827c3.137 0 6.26.239 9.284.711 4.094.635 7.927-2.162 8.565-6.255.639-4.093-2.161-7.927-6.254-8.565-3.786-.591-7.687-.89-11.595-.89h-56.827c-4.284 0-8.462-1.206-12.076-3.482l-4.457-2.814c-9.588-6.038-21.235-6.374-31.156-.896-9.917 5.475-15.839 15.506-15.839 26.832v81.622c-5.041 5.45-8.129 12.731-8.129 20.722 0 16.845 13.704 30.549 30.548 30.549h11.985v5.869c0 21.61 11.419 40.595 28.533 51.265v10.452h-108.952c3.084-10.343 4.749-21.303 4.749-32.652 0-62.394-50.124-113.156-111.734-113.156s-111.735 50.762-111.735 113.156c0 62.395 50.124 113.156 111.734 113.156 2.748 0 5.472-.105 8.17-.304v143.118c0 10.542 8.581 19.119 19.129 19.119h57.103v10.567c0 10.138 8.248 18.386 18.386 18.386h23.879c10.138 0 18.386-8.248 18.386-18.386v-10.567h11.059v30.869c0 4.142 3.358 7.5 7.5 7.5h164.302c4.142 0 7.5-3.358 7.5-7.5v-25.909c0-4.142-3.358-7.5-7.5-7.5s-7.5 3.358-7.5 7.5v18.409h-149.301v-23.369h62.497c10.548 0 19.129-8.577 19.129-19.119v-42.755h67.677v31.836c0 4.142 3.358 7.5 7.5 7.5s7.5-3.358 7.5-7.5v-31.837h13.369c7.324 0 14.178-2.048 20.02-5.602 11.153-6.784 18.618-19.055 18.618-33.036v-9.934zm-45.578-230.125c0 8.574-6.975 15.549-15.549 15.549h-11.982v-31.098h11.982c8.574 0 15.549 6.975 15.549 15.549zm-166.422 15.549c-8.574 0-15.549-6.976-15.549-15.549s6.975-15.549 15.549-15.549h11.985v31.098zm26.984 20.868v-13.272c0-.032.005-.064.005-.097s-.004-.064-.005-.097v-45.904c0-.032.005-.064.005-.097s-.004-.064-.005-.097v-32.78h67.368c16.288 0 29.539 13.251 29.539 29.539v62.803c0 25.022-20.357 45.379-45.379 45.379h-6.15c-25.021.002-45.378-20.355-45.378-45.377zm28.534 57.969c5.351 1.558 10.999 2.409 16.845 2.409h6.15c5.849 0 11.5-.852 16.853-2.411v32.209c0 8.899-7.24 16.139-16.139 16.139h-1.91v-25.479c0-10.542-8.582-19.119-19.129-19.119h-2.67zm14.357 169.314c-.02 0-.038-.003-.058-.003s-.038.003-.058.003h-8.839c-6.086 0-11.038-4.951-11.038-11.038v-15.028h26.065v26.065h-6.072zm-11.688-150.566c2.277 0 4.13 1.848 4.13 4.12v15.281c-1.332-.294-2.711-.461-4.13-.461h-143.33c4.26-5.907 7.969-12.246 11.05-18.939h132.28zm-330.344-47.651c0-54.124 43.395-98.157 96.735-98.157s96.735 44.033 96.735 98.157-43.395 98.157-96.735 98.157-96.735-44.033-96.735-98.157zm226.79 285.657c0 1.868-1.519 3.387-3.387 3.387h-23.879c-1.868 0-3.387-1.519-3.387-3.387v-10.567h30.652zm107.685-29.686c0 2.272-1.853 4.12-4.13 4.12h-206.31c-2.277 0-4.13-1.848-4.13-4.12v-145.268c20.755-4.45 39.401-14.75 54.17-29.113h156.269c2.277 0 4.13 1.848 4.13 4.12v71.443h-40.467c-4.142 0-7.5 3.358-7.5 7.5s3.358 7.5 7.5 7.5h13.033v15.028c0 14.357 11.68 26.037 26.037 26.037h1.398zm132.348-71.155c-3.823 7.921-11.936 13.399-21.304 13.399-4.43 0-78.028.002-82.416.002v-26.065h74.852c4.142 0 7.5-3.358 7.5-7.5s-3.358-7.5-7.5-7.5h-5.802v-47.66c0-4.142-3.358-7.5-7.5-7.5s-7.5 3.358-7.5 7.5v47.66h-67.681v-64.904h1.91c16.287 0 29.684-12.571 31.02-28.519h38.397c26.664 0 48.358 21.693 48.358 48.358v62.488c.001 2.038-.193 5.971-2.334 10.241z"/><path d="m195.049 199.52c4.226-1.276 7.066-5.108 7.066-9.537 0-4.428-2.839-8.261-7.066-9.539l-73.206-22.109c-2.411-.728-4.962-.728-7.374 0l-73.207 22.11c-4.226 1.277-7.065 5.11-7.065 9.538 0 2.079.633 4.023 1.734 5.636v24.779c0 4.142 3.358 7.5 7.5 7.5s7.5-3.358 7.5-7.5v-17.958l11.369 3.433v34.55c0 5.878 3.954 11.01 9.613 12.478l41.716 10.839c1.481.386 3.005.578 4.529.578 1.523 0 3.045-.192 4.525-.578l41.716-10.838c5.662-1.47 9.616-6.601 9.616-12.479v-34.551zm-76.893-26.63 56.594 17.092-56.594 17.092-56.594-17.092zm40.859 65.914-40.107 10.421c-.492.128-1.011.127-1.505 0l-40.104-10.42v-28.4l37.17 11.226c1.206.364 2.447.546 3.687.546 1.241 0 2.481-.182 3.687-.546l37.172-11.227z"/></g></g></svg>