<?xml version="1.0" encoding="utf-8"?>
<!-- Generator: Adobe Illustrator 24.1.1, SVG Export Plug-In . SVG Version: 6.00 Build 0)  -->
<svg version="1.1" id="Camada_1" xmlns="http://www.w3.org/2000/svg" xmlns:xlink="http://www.w3.org/1999/xlink" x="0px" y="0px"
	 viewBox="0 0 512 512" style="enable-background:new 0 0 512 512;" xml:space="preserve">
<style type="text/css">
	.st0{fill:url(#Page-1_1_);}
</style>
<linearGradient id="Page-1_1_" gradientUnits="userSpaceOnUse" x1="256" y1="512" x2="256" y2="0.5931">
	<stop  offset="0" style="stop-color:#348EAC"/>
	<stop  offset="1" style="stop-color:#5DD39E"/>
</linearGradient>
<path id="Page-1" class="st0" d="M193.5,384h-22.8c-56.5,0.1-102.3,45.9-102.4,102.4c0,6.8,2.7,13.3,7.5,18.1
	c4.8,4.8,11.3,7.5,18.1,7.5h324.3c14.1,0,25.6-11.5,25.6-25.6c-0.1-56.5-45.9-102.3-102.4-102.4h-22.8c-2.9-2.3-5.6-4.8-8-7.5
	c73.5-22.1,100.8-87.7,110.9-129.9c2.4-10,0-20.6-6.4-28.7c-3.8-4.7-8.8-8.4-14.5-10.5c-2.1-14.6-11.5-27-25-33
	c7.1-24.5,22.4-95.6-28.2-127c-25.4-15.7-64.7-14-106.3-12.1c-51.8,2.3-105.3,4.7-122-29.9c-1.7-3.4-5.4-5.3-9.2-4.7s-6.6,3.8-7,7.6
	c-1.8,23.9-0.3,47.9,4.7,71.3c5.1,22.7,18.5,42.7,37.7,56v35.9c-17.6,3.7-31.1,18-33.6,35.8c-5.7,2.1-10.7,5.8-14.5,10.5
	c-6.4,8.1-8.8,18.6-6.4,28.7c10.1,42.2,37.4,107.9,110.9,129.9C199,379.2,196.3,381.7,193.5,384z M213.9,388.2l33.6,49.6v57.1h-17.3
	c-1.8-34.4-9.7-68.2-23.4-99.8C209.3,392.9,211.7,390.6,213.9,388.2z M326.7,478.1l10.1,16.8h-37.9c1.6-29.1,7.9-57.7,18.6-84.8
	l29,42.2h-5.1c-6.1,0-11.8,3.3-14.8,8.7S323.5,472.8,326.7,478.1L326.7,478.1z M281.8,494.9h-17.3v-57.2l33.3-49.9
	c2.3,2.5,4.7,4.9,7.3,7.2C291.5,426.7,283.6,460.5,281.8,494.9L281.8,494.9z M256,384c8.3,0,16.7-0.5,24.9-1.5L256,419.8l-24.9-37.3
	C239.3,383.5,247.7,384,256,384z M256,366.9c-9.4,0-18.8-0.8-28-2.3c1.6-4.8,2.4-9.7,2.4-14.8c0.1-6.9-0.7-13.9-2.3-20.6
	c18.3,4.7,37.5,4.7,55.8,0c-1.6,6.8-2.4,13.7-2.3,20.6c0,5,0.9,10,2.4,14.8C274.8,366.1,265.4,366.9,256,366.9L256,366.9z
	 M155.3,494.9H93.9c-4.7,0-8.5-3.8-8.5-8.5c0.1-47.1,38.2-85.3,85.3-85.3h9.4l-29.3,42.5c-0.2,0.3-0.4,0.7-0.6,1
	c-2.6,5.3-2.4,11.6,0.7,16.6c3.1,5,8.6,8.1,14.5,8.1h5.3L155.3,494.9z M185.5,460.9c-3-5.4-8.7-8.7-14.9-8.7h-5.1l29-42.2
	c10.7,27.1,16.9,55.7,18.6,84.8h-37.9l10.1-16.8C188.5,472.9,188.6,466.3,185.5,460.9L185.5,460.9z M426.7,486.4
	c0,4.7-3.8,8.5-8.5,8.5h-61.4l-15.4-25.6h5.3c5.9,0,11.4-3.1,14.6-8.1s3.4-11.3,0.7-16.6c-0.2-0.4-0.4-0.7-0.6-1l-29.3-42.5h9.4
	C388.4,401.1,426.6,439.3,426.7,486.4L426.7,486.4z M404.8,242.6c-9.3,38.9-34.8,99.8-103.9,118.6c-1.4-3.6-2.2-7.4-2.2-11.2
	c-0.5-10,1.8-20,6.7-28.7c26.4-14.7,47.2-37.7,59-65.6c16.4-2.4,29.9-14,34.7-29.8c0.9,0.8,1.8,1.6,2.6,2.6
	C404.8,232.4,406,237.6,404.8,242.6L404.8,242.6z M124,75.8c-3-14.1-4.7-28.4-4.9-42.8C147,56.5,195,54.4,241.7,52.3
	c37.2-1.7,75.7-3.4,96.6,9.6c31.7,19.6,30,62.2,25,89.7c-7.8-15.4-20.3-27.8-35.8-35.3c-8.5-3.9-17.8-6-27.3-6
	c-13.4,0.3-26.6,3.7-38.5,10c-17.1,7.7-35.4,12.4-54.1,14.1C168.7,139.3,132.6,113.9,124,75.8L124,75.8z M153.6,187.7
	c4.7,0,8.5-3.8,8.5-8.5v-34.3c15,6.3,31.4,8.6,47.5,6.6c20.7-1.9,40.9-7.2,59.8-15.8c15.4-9.2,34.2-10.6,50.9-3.8
	c19,10.3,32.4,28.7,36.2,50c0.8,3.2,3.4,5.7,6.7,6.3v0.1c8.9,1.7,16.3,8,19.3,16.6h-7c-4.7,0-8.5,3.8-8.5,8.5s3.8,8.5,8.5,8.5h7
	c-3.6,10.2-13.2,17-24,17.1c-3.7,0-6.9,2.4-8.1,5.8c-0.2,0.7-24.5,71-94.3,71c-69.6,0-93.3-68.1-94.3-71c-1.2-3.5-4.4-5.8-8.1-5.8
	c-10.8,0-20.4-6.9-24-17.1h7c4.7,0,8.5-3.8,8.5-8.5s-3.8-8.5-8.5-8.5h-7C133.2,194.6,142.8,187.8,153.6,187.7z M107.2,242.6
	c-1.2-5,0-10.2,3.2-14.1c0.8-0.9,1.6-1.8,2.6-2.6c4.8,15.8,18.3,27.4,34.7,29.7c11.8,27.8,32.6,50.9,59,65.6
	c4.9,8.7,7.2,18.7,6.7,28.7c0,3.9-0.8,7.7-2.2,11.2C142.1,342.4,116.5,281.5,107.2,242.6L107.2,242.6z"/>
</svg>
