<?xml version="1.0" encoding="utf-8"?>
<!-- Generator: Adobe Illustrator 24.1.1, SVG Export Plug-In . SVG Version: 6.00 Build 0)  -->
<svg version="1.1" id="Camada_1" xmlns="http://www.w3.org/2000/svg" xmlns:xlink="http://www.w3.org/1999/xlink" x="0px" y="0px"
	 viewBox="0 0 512 512" style="enable-background:new 0 0 512 512;" xml:space="preserve">
<style type="text/css">
	.st0{fill:url(#Page-1_1_);}
</style>
<linearGradient id="Page-1_1_" gradientUnits="userSpaceOnUse" x1="255.9935" y1="512.0004" x2="255.9935" y2="2.720742e-02">
	<stop  offset="0" style="stop-color:#348EAC"/>
	<stop  offset="1" style="stop-color:#5DD39E"/>
</linearGradient>
<path id="Page-1" class="st0" d="M230.4,247.5c23.6,0,42.7-19.1,42.7-42.7s-19.1-42.7-42.7-42.7s-42.7,19.1-42.7,42.7
	C187.8,228.4,206.8,247.4,230.4,247.5z M230.4,179.2c14.1,0,25.6,11.5,25.6,25.6c0,14.1-11.5,25.6-25.6,25.6
	c-14.1,0-25.6-11.5-25.6-25.6C204.8,190.7,216.3,179.2,230.4,179.2z M324.3,256c14.1,0,25.6-11.5,25.6-25.6
	c0-14.1-11.5-25.6-25.6-25.6c-14.1,0-25.6,11.5-25.6,25.6C298.7,244.5,310.1,256,324.3,256z M324.3,221.9c4.7,0,8.5,3.8,8.5,8.5
	s-3.8,8.5-8.5,8.5s-8.5-3.8-8.5-8.5S319.6,221.9,324.3,221.9z M162.1,298.7c14.1,0,25.6-11.5,25.6-25.6s-11.5-25.6-25.6-25.6
	c-14.1,0-25.6,11.5-25.6,25.6S148,298.7,162.1,298.7z M162.1,264.5c4.7,0,8.5,3.8,8.5,8.5s-3.8,8.5-8.5,8.5c-4.7,0-8.5-3.8-8.5-8.5
	S157.4,264.5,162.1,264.5z M213.3,315.7c0,28.3,22.9,51.2,51.2,51.2s51.2-22.9,51.2-51.2c0-28.3-22.9-51.2-51.2-51.2
	C236.3,264.6,213.4,287.5,213.3,315.7z M298.7,315.7c0,18.9-15.3,34.1-34.1,34.1c-18.9,0-34.1-15.3-34.1-34.1
	c0-18.9,15.3-34.1,34.1-34.1C283.4,281.6,298.7,296.9,298.7,315.7z M34.1,290.1c6.3,0,12.5-1.8,17.9-5.1c2.5-1.8,5.6-2.8,8.7-2.9
	c10.9,0.6,27.2,1.8,44.8,4.3c1.2,6.2,2.9,12.4,4.9,18.4c-14.7,11.5-28.4,20.8-37.2,26.5c-2.3,1.3-4.9,1.8-7.4,1.5
	c-8.9-0.5-17.6,2.5-24.3,8.3c-10.8,9.3-14.7,24.3-9.7,37.7c3.5,9.4,11,16.8,20.4,20.2s19.9,2.5,28.6-2.5c5.6-3.2,10.1-7.8,13.1-13.5
	c1.3-2.8,3.4-5.1,6-6.7c8.4-4.3,29.4-13.5,41.2-18.5c4.2,4.7,8.6,9.1,13.4,13.2c-7.3,18.1-15,33.6-19.1,41.7
	c-1.3,2.2-3.3,3.9-5.6,4.9c-10.3,5.2-17.2,15.2-18.5,26.7c-1.3,11.4,3.2,22.8,12.1,30.1c6.2,5.1,13.9,7.8,21.8,7.9
	c9.2,0,18-3.8,24.5-10.4s9.9-15.5,9.6-24.8c-0.3-3.1,0.3-6.2,1.9-8.9c6-9.2,15.2-22.7,26.2-36.8c5.9,2,12,3.7,18.2,5
	c1.2,10.5,4,35.8,4.4,45.6c0,2.5-0.8,5-2.3,7c-6.3,9.6-7.4,21.8-2.8,32.4c4.6,10.6,14.2,18.1,25.6,20.1c1.9,0.3,3.8,0.4,5.7,0.4
	c9.1,0,17.8-3.6,24.2-10c6.4-6.4,10-15.1,10-24.2c0-6.4-1.8-12.7-5.2-18.2c-1.7-2.4-2.7-5.4-2.7-8.4c0.6-10.9,1.8-27.2,4.3-44.8
	c6.2-1.3,12.4-3,18.4-5c12.1,15.4,21.6,29.8,26.5,37.4c1.3,2.2,1.8,4.8,1.5,7.3c-0.5,9.4,2.9,18.6,9.4,25.4
	c6.5,6.8,15.5,10.7,24.9,10.7c4,0,8-0.7,11.7-2.1c9.4-3.5,16.8-11,20.3-20.4c3.4-9.5,2.5-19.9-2.6-28.7c-3.1-5.5-7.8-10-13.4-13
	c-2.8-1.3-5.2-3.4-6.8-6.1c-5-9.8-12.1-24.5-18.8-41c4.7-4.1,9.2-8.6,13.4-13.3c20.5,8.9,35.6,15.8,41.7,19c2.2,1.3,4,3.3,5,5.6
	c5.2,10.2,15.1,17.1,26.4,18.5s22.6-3,30.1-11.6c6.6-7.7,9.5-18,7.8-28c-1.7-10-7.8-18.8-16.7-23.8c-5.6-3.3-12-4.8-18.5-4.5
	c-2.9,0.3-5.9-0.4-8.4-1.8c-13.1-8.5-25.4-17.2-36.6-26.2c2-6,3.6-12.1,4.8-18.4c19.4-2.7,36.6-3.8,45.6-4.3c2.5,0,5,0.9,7,2.4
	c12.2,8,28.1,7.4,39.6-1.6c11.5-8.9,16.1-24.2,11.4-38c-4.7-13.8-17.7-23.1-32.2-23.1c-6.3,0-12.5,1.8-17.9,5.1
	c-2.5,1.8-5.6,2.8-8.7,2.9c-10.9-0.6-27.2-1.8-44.8-4.3c-1.2-6.2-2.9-12.4-4.9-18.4c14.7-11.5,28.4-20.8,37.2-26.5
	c2.3-1.3,4.8-1.8,7.4-1.5c8.9,0.5,17.6-2.5,24.3-8.3c10.8-9.3,14.7-24.3,9.7-37.7c-3.5-9.4-11-16.8-20.4-20.2s-19.9-2.5-28.6,2.5
	c-5.6,3.2-10.1,7.8-13.1,13.5c-1.3,2.8-3.4,5.1-6,6.7c-8.4,4.3-29.4,13.5-41.2,18.5c-4.2-4.7-8.6-9-13.3-13.1
	c7.3-18.1,15-33.6,19.1-41.7c1.3-2.2,3.3-3.9,5.6-4.9c13-6.6,20.4-20.7,18.4-35.1s-12.9-26-27.2-28.8c-14.3-2.8-28.8,3.8-36.1,16.4
	c-3.2,5.5-4.8,11.7-4.6,18c0.3,3.1-0.3,6.2-1.9,8.9c-6,9.2-15.2,22.7-26.2,36.7c-5.9-2-12-3.7-18.2-5c-1.2-10.5-4-36-4.4-45.7
	c0-2.5,0.8-4.9,2.3-6.9c8.1-12.2,7.5-28.1-1.4-39.7c-8.9-11.6-24.2-16.2-38-11.5c-13.8,4.7-23.1,17.7-23.1,32.3
	c0,6.4,1.8,12.7,5.2,18.1c1.8,2.5,2.7,5.4,2.7,8.4c-0.5,9.3-3,32.1-4.6,44.9c-6.1,1.3-12.2,2.9-18.1,5
	c-12.1-15.4-21.6-29.8-26.5-37.4c-1.2-2.2-1.7-4.8-1.4-7.3c0.8-14.6-7.7-28-21.2-33.5c-13.5-5.5-29-1.8-38.6,9.2
	s-11.1,26.8-3.9,39.5c3.1,5.5,7.8,10,13.4,13c2.8,1.3,5.2,3.4,6.8,6.1c5,9.8,12.1,24.5,18.8,41c-4.7,4.1-9.2,8.6-13.4,13.2
	c-9.6-4.2-33-14.4-41.7-19c-2.2-1.3-4-3.3-5-5.6c-6.6-13-20.7-20.4-35.2-18.4s-26.1,12.9-28.9,27.3c-2.8,14.3,3.8,28.9,16.4,36.2
	c5.6,3.2,12,4.8,18.5,4.5c2.9-0.3,5.9,0.4,8.4,1.8c12.6,8.1,24.9,16.8,36.6,26.2c-2,6-3.6,12.1-4.8,18.4
	c-19.3,2.7-36.5,3.8-45.6,4.3c-2.5,0-5-0.9-7-2.4c-12.2-8-28.1-7.4-39.6,1.6C1.7,238-2.8,253.2,1.9,267
	C6.6,280.8,19.6,290.1,34.1,290.1L34.1,290.1z M166.7,428.9c-3.4,5.6-5.1,12.2-4.6,18.8c0.1,3.2-0.7,6.3-2.3,9
	c-3.7,6.3-10.9,9.6-18.1,8.1c-7.1-1.4-12.6-7.2-13.6-14.4c-1-7.2,2.7-14.3,9.2-17.5c5.6-2.6,10.2-6.9,13.1-12.4
	c4.8-9.2,11.3-22.7,17.9-38.4c7.1,4.9,14.5,9.2,22.3,12.9C180.7,408,172.4,420.3,166.7,428.9z M361.1,419.7c3.2,5.8,8,10.5,14,13.4
	c2.8,1.5,5.1,3.7,6.6,6.5c3.6,6.3,2.9,14.2-1.9,19.7c-4.8,5.5-12.5,7.3-19.3,4.6s-11-9.5-10.6-16.8c0.5-6.1-0.9-12.3-4.2-17.5
	c-4.6-7.2-13.3-20.2-24.3-34.7c7.8-3.7,15.2-8,22.3-13C350,397.2,356.4,410.6,361.1,419.7z M450.4,246.9c6.6,0.2,13.1-1.7,18.6-5.4
	c7.2-4.2,16.4-2.8,22,3.5c5.6,6.5,5.6,16.1-0.1,22.5c-5.7,6.4-15.2,7.6-22.3,2.8c-5.1-3.5-11.1-5.3-17.2-5.1
	c-8.5,0.4-24.1,1.4-42.1,3.7c0.3-4.3,0.5-8.5,0.5-12.9c0-4.3-0.2-8.6-0.5-12.9C425.3,245.2,440.1,246.3,450.4,246.9L450.4,246.9z
	 M345.3,83.1c3.4-5.6,5.1-12.2,4.6-18.8c-0.1-3.2,0.7-6.3,2.3-9c3.7-6.3,10.9-9.6,18.1-8.1s12.6,7.2,13.6,14.4s-2.7,14.3-9.2,17.5
	c-5.6,2.6-10.2,6.9-13.1,12.4c-4.8,9.2-11.3,22.7-17.9,38.4c-7.1-4.9-14.5-9.2-22.3-12.9C331.3,104,339.6,91.7,345.3,83.1
	L345.3,83.1z M150.9,92.3c-3.2-5.8-8-10.5-14-13.4c-2.8-1.5-5.1-3.7-6.6-6.5c-3.6-6.3-2.9-14.3,1.9-19.8s12.6-7.3,19.3-4.6
	c6.8,2.8,11,9.5,10.6,16.8c-0.5,6.1,0.9,12.3,4.2,17.5c5.5,8.7,13.9,21.1,24.3,34.7c-7.8,3.7-15.2,8-22.3,12.9
	C162,114.8,155.6,101.4,150.9,92.3L150.9,92.3z M83,166.7c-5.5-3.4-12-5-18.4-4.6c-3.2,0.2-6.4-0.6-9.2-2.3
	c-6.3-3.7-9.5-10.9-8.1-18c1.4-7.1,7.2-12.6,14.4-13.6s14.2,2.7,17.5,9.1c2.6,5.6,6.9,10.2,12.4,13.1c8.8,4.6,30.6,14.2,42.8,19.4
	c6.8,2.9,14.7,1.1,19.6-4.5c19.6-22.1,45.8-37.3,74.7-43.2c7.3-1.4,12.9-7.4,13.7-14.8c1.5-13,4-36.1,4.5-45.9
	c0.2-6.6-1.7-13-5.4-18.4c-1.7-2.7-2.6-5.8-2.6-9c0-7.3,4.7-13.8,11.6-16.1s14.5,0,19,5.8c4.4,5.8,4.7,13.8,0.7,19.8
	c-3.5,5-5.3,11-5.1,17.1c0.5,9.9,3,33.6,4.5,46.8c0.9,7.4,6.4,13.4,13.7,14.8c28.9,5.9,55.1,21.1,74.7,43.2
	c4.9,5.6,12.8,7.4,19.6,4.5c11.9-5.2,33.3-14.6,42.1-19.1c5.7-3.1,10.3-8,13.2-13.8c1.5-2.8,3.8-5.2,6.6-6.7
	c7.6-4.4,17.3-2.4,22.4,4.8c5.1,7.1,4,17-2.6,22.8c-3.4,2.9-7.8,4.5-12.3,4.3c-6.2-0.5-12.3,0.9-17.6,4.2
	c-9.2,5.9-23.3,15.4-38.5,27.4c-5.7,4.5-7.9,12.1-5.5,19c9.4,28.1,9.4,58.6,0,86.7c-2.3,6.9-0.1,14.4,5.5,19
	c11.7,9.2,24.5,18.3,38,27c5.5,3.4,12,5,18.4,4.6c3.2-0.2,6.4,0.6,9.2,2.3c6.3,3.7,9.5,10.9,8.1,18c-1.4,7.1-7.2,12.6-14.4,13.6
	c-7.2,1-14.2-2.7-17.5-9.1c-2.6-5.6-6.9-10.2-12.4-13.1c-8.7-4.5-30.5-14.1-42.7-19.4c-6.8-2.9-14.8-1.1-19.6,4.5
	c-20.9,23.7-49.4,39.3-80.6,44.2c-3.7,0.6-6.6,3.6-7.1,7.3c-3.2,20.6-4.6,39.8-5.3,52.4c-0.2,6.6,1.7,13,5.4,18.4
	c1.7,2.7,2.6,5.8,2.6,9c0,5-2.2,9.8-6,13c-6.5,5.5-16,5.3-22.4-0.3c-6.3-5.7-7.6-15.1-2.9-22.2c3.5-5,5.3-11,5.1-17.1
	c-0.5-9.9-3-33.6-4.5-46.8c-0.9-7.4-6.4-13.3-13.7-14.7c-28.9-5.9-55.2-21.1-74.7-43.2c-3.3-3.7-8-5.8-12.9-5.9
	c-2.3,0-4.6,0.5-6.7,1.4c-11.9,5.2-33.3,14.6-42.1,19.1c-5.7,3.1-10.3,8-13.2,13.8c-1.5,2.8-3.8,5.2-6.6,6.7
	c-7.6,4.5-17.4,2.5-22.6-4.7c-5.2-7.2-4-17.1,2.7-22.9c3.4-2.9,7.8-4.5,12.3-4.3c6.2,0.5,12.3-0.9,17.6-4.2
	c9.2-5.9,23.3-15.4,38.5-27.4c5.7-4.5,7.9-12.1,5.5-19c-9.4-28.1-9.4-58.5,0-86.7c2.4-6.9,0.2-14.5-5.5-19
	C109.3,184.5,96.5,175.5,83,166.7L83,166.7z M17.3,253c1-5.7,4.8-10.4,10.1-12.7s11.3-1.8,16.2,1.4c5,3.5,11.1,5.3,17.2,5.1
	c10.2-0.5,25.3-1.5,42.1-3.7c-0.3,4.3-0.5,8.5-0.5,12.9s0.2,8.6,0.5,12.9c-16.3-2.1-31.1-3.2-41.3-3.7c-6.6-0.2-13.1,1.7-18.6,5.4
	c-7.2,4.2-16.4,2.8-21.9-3.4C17.8,263.2,16.4,258.1,17.3,253L17.3,253z"/>
</svg>
