<?xml version="1.0" encoding="utf-8"?>
<!-- Generator: Adobe Illustrator 24.1.1, SVG Export Plug-In . SVG Version: 6.00 Build 0)  -->
<svg version="1.1" id="Camada_1" xmlns="http://www.w3.org/2000/svg" xmlns:xlink="http://www.w3.org/1999/xlink" x="0px" y="0px"
	 viewBox="0 0 512 512" style="enable-background:new 0 0 512 512;" xml:space="preserve">
<style type="text/css">
	.st0{fill:url(#Page-1_1_);}
</style>
<linearGradient id="Page-1_1_" gradientUnits="userSpaceOnUse" x1="256.0022" y1="511.7964" x2="256.0022" y2="2.441406e-05">
	<stop  offset="0" style="stop-color:#348EAC"/>
	<stop  offset="1" style="stop-color:#5DD39E"/>
</linearGradient>
<path id="Page-1" class="st0" d="M392.5,273.1c-18.9,0-37.5,4.5-54.2,13.1l-65.2-19.5v-23.9c9.4,8.5,21.5,13.2,34.1,13.2h110.9
	c33,0,59.7-26.8,59.7-59.7c0-14.1-11.5-25.6-25.6-25.6H328.2l19.3-13.5c6.8-4.8,10.9-12.6,10.9-21V68.3c0-4.7-3.8-8.5-8.5-8.5
	c-4.7,0-8.5,3.8-8.5,8.5v67.9c0,2.8-1.4,5.4-3.6,7l-39.3,27.5h-25.4c0-4.1-0.8-8.2-2.2-12.1c15.8-7.6,23.2-26,17.2-42.4
	c-6-16.5-23.6-25.6-40.6-21.2V8.5c0-4.7-3.8-8.5-8.5-8.5s-8.5,3.8-8.5,8.5V95c-17-4.4-34.5,4.7-40.6,21.2
	c-6,16.5,1.4,34.8,17.2,42.4c-1.5,3.9-2.2,7.9-2.2,12.1h-25.4l-39.3-27.5c-2.3-1.6-3.6-4.2-3.6-7V68.3c0-4.7-3.8-8.5-8.5-8.5
	s-8.5,3.8-8.5,8.5v67.9c0,8.4,4.1,16.2,10.9,21l19.3,13.5H25.6C11.5,170.7,0,182.1,0,196.3c0,33,26.8,59.7,59.7,59.7h110.9
	c12.6,0,24.8-4.7,34.1-13.1v23.9l-73.1,21.9c-6,1.8-11.1,5.7-14.4,10.9l-39.3,62.8c-1.6,2.6-1.7,5.8-0.3,8.5
	c1.4,2.7,4.2,4.4,7.3,4.5c3.1,0.1,5.9-1.4,7.5-4l39.3-62.8c1.1-1.8,2.8-3.1,4.8-3.7l68.2-20.5v19.1l-43.7,43.7
	c-4.8,4.8-7.5,11.3-7.5,18.1v78.3c0,4.7,3.8,8.5,8.5,8.5s8.5-3.8,8.5-8.5v-78.3c0-2.3,0.9-4.4,2.5-6l33.4-33.4
	c4.4,14.2,17.5,23.8,32.4,23.8s28-9.7,32.4-23.8l14.1,14C262,388,273.2,445.5,312.8,481.1s98,40.7,143.1,12.5
	c45.2-28.2,66.1-83,51.4-134.2C492.6,308.3,445.8,273,392.5,273.1L392.5,273.1z M221.9,179.2v-8.5c0-3.1,0.9-6.1,2.4-8.7
	c5.1-0.3,10.2-1.9,14.6-4.4c4.5,2.6,9.5,4.1,14.6,4.4c1.6,2.6,2.4,5.6,2.4,8.7v17.1h-34.1V179.2z M256,204.8v34.1h-34.1v-34.1H256z
	 M221.9,256H256v34.1h-34.1V256z M452.3,187.7c4.7,0,8.5,3.8,8.5,8.5c0,23.6-19.1,42.6-42.7,42.7H307.2c-18.9,0-34.1-15.3-34.1-34.1
	v-17.1H452.3z M221.9,110.9c4.2,0,8.2,1.6,11.3,4.4c3.3,2.9,8.2,2.9,11.5,0c3.1-2.8,7.1-4.4,11.3-4.4c9.4,0,17.1,7.6,17.1,17.1
	s-7.6,17.1-17.1,17.1c-4.2,0-8.2-1.6-11.3-4.4c-3.3-2.9-8.2-2.9-11.5,0c-3.1,2.8-7.1,4.4-11.3,4.4c-9.4,0-17.1-7.6-17.1-17.1
	C204.8,118.6,212.4,110.9,221.9,110.9L221.9,110.9z M170.7,238.9H59.7c-23.6,0-42.6-19.1-42.7-42.7c0-4.7,3.8-8.5,8.5-8.5h179.2
	v17.1C204.8,223.7,189.5,238.9,170.7,238.9z M256,315.7c0,9.4-7.6,17.1-17.1,17.1c-9.4,0-17.1-7.6-17.1-17.1v-8.5H256V315.7z
	 M273.1,303.7v-19.1l46.2,13.8c-9.7,7.5-18.1,16.4-25.1,26.5L273.1,303.7z M392.5,494.9c-56.6,0-102.4-45.8-102.4-102.4
	S336,290.1,392.5,290.1S494.9,336,494.9,392.5C494.9,449.1,449.1,494.9,392.5,494.9z M454.8,346.7l-7.9,4.6
	c-3.8-4.9-8.2-9.3-13.1-13.1l4.6-7.9c2.3-4.1,0.9-9.3-3.2-11.6c-4.1-2.3-9.3-1-11.6,3.1l-4.5,7.9c-5.7-2.4-11.8-4-17.9-4.8v-9.1
	c0-4.7-3.8-8.5-8.5-8.5c-4.7,0-8.5,3.8-8.5,8.5v9.1c-6.2,0.8-12.2,2.4-17.9,4.8l-4.5-7.9c-1.5-2.7-4.3-4.3-7.4-4.3s-5.9,1.6-7.4,4.3
	c-1.5,2.7-1.5,5.9,0,8.6l4.6,7.9c-4.9,3.8-9.3,8.2-13.1,13.1l-7.9-4.6c-2.6-1.5-5.9-1.6-8.6,0c-2.7,1.5-4.3,4.4-4.3,7.4
	c0,3.1,1.7,5.9,4.3,7.4l7.9,4.5c-2.4,5.7-4,11.8-4.8,17.9h-9.2c-4.7,0-8.5,3.8-8.5,8.5s3.8,8.5,8.5,8.5h9.1
	c0.8,6.2,2.4,12.2,4.8,17.9l-7.9,4.5c-2.7,1.5-4.3,4.3-4.3,7.4s1.6,5.9,4.3,7.4c2.7,1.5,5.9,1.5,8.6,0l7.9-4.6
	c3.8,4.9,8.2,9.3,13.1,13.1l-4.6,7.9c-1.5,2.6-1.6,5.9,0,8.6c1.5,2.7,4.4,4.3,7.4,4.3c3.1,0,5.9-1.7,7.4-4.3l4.5-7.9
	c5.7,2.4,11.8,4,17.9,4.8v9.2c0,4.7,3.8,8.5,8.5,8.5c4.7,0,8.5-3.8,8.5-8.5v-9.1c6.2-0.8,12.2-2.4,17.9-4.8l4.5,7.9
	c2.4,4,7.6,5.4,11.6,3.1c4.1-2.3,5.5-7.5,3.2-11.6l-4.6-7.9c4.9-3.8,9.3-8.2,13.1-13.1l7.9,4.6c2.6,1.5,5.9,1.6,8.6,0
	c2.7-1.5,4.3-4.4,4.3-7.4s-1.7-5.9-4.3-7.4l-7.9-4.5c2.4-5.7,4-11.8,4.8-17.9h9.2c4.7,0,8.5-3.8,8.5-8.5s-3.8-8.5-8.5-8.5h-9.1
	c-0.8-6.2-2.4-12.2-4.8-17.9l7.9-4.5c2.7-1.5,4.3-4.3,4.3-7.4s-1.6-5.9-4.3-7.4C460.7,345.2,457.4,345.2,454.8,346.7L454.8,346.7z
	 M392.5,443.7c-28.3,0-51.2-22.9-51.2-51.2s22.9-51.2,51.2-51.2s51.2,22.9,51.2,51.2C443.7,420.8,420.8,443.7,392.5,443.7z
	 M375.5,366.9c4.7,0,8.5,3.8,8.5,8.5c0,4.7-3.8,8.5-8.5,8.5c-4.7,0-8.5-3.8-8.5-8.5C366.9,370.8,370.8,366.9,375.5,366.9z
	 M384,401.1c4.7,0,8.5,3.8,8.5,8.5c0,4.7-3.8,8.5-8.5,8.5s-8.5-3.8-8.5-8.5C375.5,404.9,379.3,401.1,384,401.1z M409.6,375.5
	c4.7,0,8.5,3.8,8.5,8.5s-3.8,8.5-8.5,8.5c-4.7,0-8.5-3.8-8.5-8.5S404.9,375.5,409.6,375.5z"/>
</svg>
