<?xml version="1.0" encoding="utf-8"?>
<!-- Generator: Adobe Illustrator 24.1.1, SVG Export Plug-In . SVG Version: 6.00 Build 0)  -->
<svg version="1.1" id="Camada_1" xmlns="http://www.w3.org/2000/svg" xmlns:xlink="http://www.w3.org/1999/xlink" x="0px" y="0px"
	 viewBox="0 0 512 512" style="enable-background:new 0 0 512 512;" xml:space="preserve">
<style type="text/css">
	.st0{fill:url(#Page-1_1_);}
</style>
<linearGradient id="Page-1_1_" gradientUnits="userSpaceOnUse" x1="256" y1="443.7338" x2="256" y2="68.2816">
	<stop  offset="0" style="stop-color:#348EAC"/>
	<stop  offset="1" style="stop-color:#5DD39E"/>
</linearGradient>
<path id="Page-1" class="st0" d="M142.5,281.2c36.7,11.5,75,17.3,113.5,17.3c38.5,0,76.8-5.9,113.5-17.3c2.9-0.9,5.1-3.3,5.8-6.3
	c0.7-3-0.3-6.1-2.5-8.1c-2.2-2.1-5.4-2.8-8.3-1.9c-70.6,22.1-146.2,22.1-216.8,0c-4.5-1.4-9.3,1.1-10.7,5.6
	C135.5,275,138.1,279.8,142.5,281.2L142.5,281.2z M143.8,230.3c37.1,5.7,74.7,8.6,112.2,8.6c37.6,0,75.1-2.8,112.2-8.6
	c3-0.4,5.6-2.5,6.7-5.3c1.1-2.9,0.6-6.1-1.3-8.5c-1.9-2.4-5-3.5-8-3c-72.7,11.2-146.6,11.2-219.2,0c-4.6-0.7-8.9,2.5-9.6,7.1
	S139.1,229.5,143.8,230.3z M363.3,325.1c-67.7,33.1-146.8,33.1-214.5,0c-2.8-1.6-6.2-1.4-8.8,0.3c-2.7,1.7-4.1,4.8-3.8,8
	c0.3,3.2,2.4,5.9,5.3,7.1c72.3,35.3,156.9,35.3,229.2,0c3-1.2,5-3.9,5.3-7.1s-1.2-6.2-3.8-8C369.4,323.7,366,323.6,363.3,325.1
	L363.3,325.1z M477.9,153.6h-44.2c-3.6-10.2-13.2-17-24-17.1h-12.9c-31.7-0.4-61.5-15.1-81.2-39.9C301,78.7,279.1,68.3,256,68.3
	c-23.1,0-45,10.4-59.5,28.3c-19.7,24.9-49.5,39.5-81.2,39.9h-12.9c-10.8,0-20.4,6.9-24,17.1H34.1C15.3,153.6,0,168.9,0,187.7v42.7
	c0,44.9,40.2,86.1,88.9,92.9c24.1,65.8,83.4,112.2,153,119.7c9.4,1.1,18.8,1.1,28.2,0c69.6-7.5,128.9-53.9,153-119.7
	c48.7-6.7,88.9-48,88.9-92.9v-42.7C512,168.9,496.7,153.6,477.9,153.6z M102.4,153.6h12.9c36.8-0.4,71.5-17.4,94.4-46.3
	c11.3-13.9,28.3-22,46.3-22c18,0,35,8.1,46.3,22c22.9,28.8,57.6,45.8,94.4,46.3h12.9c4.7,0,8.5,3.8,8.5,8.5v8.5l-25.6,0h-0.2
	c-40.6-1.1-78.5-20.4-103.3-52.5c-8.1-9.9-20.2-15.7-33.1-15.7c-12.8,0-25,5.8-33,15.8c-24.8,32.1-62.7,51.4-103.3,52.4h-0.2
	l-25.6,0.1v-8.5C93.9,157.4,97.7,153.6,102.4,153.6L102.4,153.6z M17.1,230.4v-42.7c0-9.4,7.6-17.1,17.1-17.1h42.7V256
	c0,16.5,2.2,32.9,6.4,48.8C49.3,296.7,17.1,267.7,17.1,230.4z M268.3,426c-8.2,0.9-16.4,0.9-24.6,0
	c-64.8-7.1-119.6-51.3-140.3-113.1v-0.1c-6.3-18.3-9.5-37.4-9.6-56.8v-68.3l25.6,0c45.8-0.9,88.7-22.5,116.7-58.7
	c4.8-6,12.1-9.5,19.8-9.5c7.7,0,15,3.4,19.8,9.4c28,36.1,70.8,57.7,116.5,58.8h0.2l25.6,0V256c0,19.3-3.2,38.5-9.5,56.7v0.1
	C388,374.7,333.2,418.9,268.3,426L268.3,426z M494.9,230.4c0,37.3-32.2,66.3-66.1,74.5c4.2-15.9,6.3-32.4,6.4-48.9v-85.3h42.7
	c9.4,0,17.1,7.6,17.1,17.1V230.4z"/>
</svg>
