<?xml version="1.0" encoding="utf-8"?>
<!-- Generator: Adobe Illustrator 24.1.1, SVG Export Plug-In . SVG Version: 6.00 Build 0)  -->
<svg version="1.1" id="Camada_1" xmlns="http://www.w3.org/2000/svg" xmlns:xlink="http://www.w3.org/1999/xlink" x="0px" y="0px"
	 viewBox="0 0 512 512" style="enable-background:new 0 0 512 512;" xml:space="preserve">
<style type="text/css">
	.st0{fill:url(#Page-1_1_);}
</style>
<linearGradient id="Page-1_1_" gradientUnits="userSpaceOnUse" x1="256" y1="512.013" x2="256" y2="3.214646e-03">
	<stop  offset="0" style="stop-color:#348EAC"/>
	<stop  offset="1" style="stop-color:#5DD39E"/>
</linearGradient>
<path id="Page-1" class="st0" d="M436,56.4c-26.9-1.1-118.5-8-168.6-52.1c-6.5-5.8-16.3-5.8-22.9,0C194.5,48.5,102.9,55.4,76,56.4
	c-9.1,0.4-16.3,7.9-16.3,17v138.8c0,127.5,73.6,243.7,188.9,298.1c4.7,2.2,10.1,2.2,14.7,0C378.5,455.7,452,339.7,452.3,212.3V73.4
	C452.3,64.3,445.1,56.8,436,56.4L436,56.4z M435.2,212.3c-0.2,120.9-70,230.9-179.3,282.7C146.5,443.3,76.8,333.2,76.8,212.3
	L76.7,73.5c28.3-1.1,124.8-8.5,179.5-56.3c54.2,47.8,150.6,55.2,179,56.3V212.3z M246.8,45.2C203.6,73,148.1,83.9,109.2,88.1
	c-8.7,0.9-15.3,8.2-15.3,16.9v106.9c0.1,108,59.1,207.3,153.9,258.9c5.1,2.7,11.3,2.7,16.4,0c94.9-51.6,154-150.9,153.9-258.9V105
	c0-8.7-6.6-16.1-15.3-17c-39-4.3-94.5-15.1-137.7-42.9C259.6,41.6,252.4,41.6,246.8,45.2z M401.1,105v106.9
	c0,101.7-55.6,195.3-145,243.9l4.1,7.5l-4.3-7.5C166.6,407.1,111,313.6,110.9,211.9L111,105c40.8-4.4,99-15.9,145-45.5
	C301.9,89.1,360.2,100.6,401.1,105L401.1,105z M145.1,134.7c24.2-4,48-10.1,71.2-18.3c4.4-1.6,6.6-6.5,5-10.9
	c-1.6-4.4-6.4-6.7-10.8-5.2c-22.2,7.8-45,13.7-68.3,17.5c-8.2,1.4-14.2,8.5-14.2,16.8v44.5c0,4.7,3.8,8.5,8.5,8.5
	c4.7,0,8.5-3.8,8.5-8.5V134.7z M247.5,128v26c-9.1,0.9-18.1,3.4-26.5,7.2l-4.5-7.8c-1.5-2.7-4.3-4.3-7.4-4.3c-3.1,0-5.9,1.6-7.4,4.3
	s-1.5,5.9,0,8.6l4.5,7.9c-7.5,5.4-14,11.9-19.4,19.4l-7.9-4.5c-2.6-1.5-5.9-1.6-8.6,0c-2.7,1.5-4.3,4.4-4.3,7.4
	c0,3.1,1.7,5.9,4.3,7.4l7.8,4.5c-3.8,8.4-6.2,17.3-7.2,26.5h-17.5c-4.7,0-8.5,3.8-8.5,8.5s3.8,8.5,8.5,8.5h17.5
	c0.9,9.1,3.4,18.1,7.2,26.5l-7.8,4.5c-2.7,1.5-4.3,4.3-4.3,7.4s1.6,5.9,4.3,7.4c2.7,1.5,5.9,1.5,8.6,0l7.9-4.5
	c5.4,7.5,11.9,14,19.4,19.4l-4.5,7.9c-1.5,2.6-1.6,5.9,0,8.6s4.4,4.3,7.4,4.3c3.1,0,5.9-1.7,7.4-4.3l4.5-7.8
	c8.4,3.8,17.3,6.2,26.5,7.2v17.5c0,4.7,3.8,8.5,8.5,8.5c4.7,0,8.5-3.8,8.5-8.5v-17.5c9.1-0.9,18.1-3.4,26.5-7.2l4.5,7.8
	c1.5,2.7,4.3,4.3,7.4,4.3s5.9-1.6,7.4-4.3s1.5-5.9,0-8.6l-4.5-7.9c7.5-5.4,14-11.9,19.4-19.4l7.9,4.5c2.6,1.5,5.9,1.6,8.6,0
	c2.7-1.5,4.3-4.4,4.3-7.4c0-3.1-1.7-5.9-4.3-7.4l-7.8-4.5c3.8-8.4,6.2-17.3,7.2-26.5h17.5c4.7,0,8.5-3.8,8.5-8.5
	c0-4.7-3.8-8.5-8.5-8.5h-17.5c-0.9-9.1-3.4-18.1-7.2-26.5l7.8-4.5c2.7-1.5,4.3-4.3,4.3-7.4c0-3.1-1.6-5.9-4.3-7.4s-5.9-1.5-8.6,0
	l-7.9,4.5c-5.4-7.5-11.9-14-19.4-19.4l4.5-7.9c1.5-2.6,1.6-5.9,0-8.6c-1.5-2.7-4.4-4.3-7.4-4.3c-3.1,0-5.9,1.7-7.4,4.3l-4.5,7.8
	c-8.4-3.8-17.3-6.2-26.5-7.2V128c0-4.7-3.8-8.5-8.5-8.5C251.3,119.5,247.5,123.3,247.5,128L247.5,128z M324.3,238.9
	c0,37.7-30.6,68.3-68.3,68.3s-68.3-30.6-68.3-68.3s30.6-68.3,68.3-68.3C293.7,170.7,324.2,201.2,324.3,238.9z M230.4,204.8
	c4.7,0,8.5,3.8,8.5,8.5s-3.8,8.5-8.5,8.5c-4.7,0-8.5-3.8-8.5-8.5S225.7,204.8,230.4,204.8z M238.9,264.5c4.7,0,8.5,3.8,8.5,8.5
	s-3.8,8.5-8.5,8.5s-8.5-3.8-8.5-8.5S234.2,264.5,238.9,264.5z M281.6,221.9c4.7,0,8.5,3.8,8.5,8.5s-3.8,8.5-8.5,8.5
	s-8.5-3.8-8.5-8.5S276.9,221.9,281.6,221.9z"/>
</svg>
