<?xml version="1.0" encoding="utf-8"?>
<!-- Generator: Adobe Illustrator 24.1.1, SVG Export Plug-In . SVG Version: 6.00 Build 0)  -->
<svg version="1.1" id="Camada_1" xmlns="http://www.w3.org/2000/svg" xmlns:xlink="http://www.w3.org/1999/xlink" x="0px" y="0px"
	 viewBox="0 0 512 512" style="enable-background:new 0 0 512 512;" xml:space="preserve">
<style type="text/css">
	.st0{fill:url(#Page-1_1_);}
</style>
<linearGradient id="Page-1_1_" gradientUnits="userSpaceOnUse" x1="256" y1="511.9745" x2="256" y2="-1.627604e-05">
	<stop  offset="0" style="stop-color:#348EAC"/>
	<stop  offset="1" style="stop-color:#5DD39E"/>
</linearGradient>
<path id="Page-1" class="st0" d="M347.4,386.5c-2.1-2.3-5.3-3.3-8.4-2.6c-3.1,0.8-5.4,3.1-6.2,6.2c-0.8,3.1,0.2,6.3,2.5,8.4
	l25.6,25.6c1.6,1.6,3.8,2.5,6,2.6h0.6c2.5-0.2,4.7-1.4,6.2-3.4l76.8-102.4c2.8-3.8,2.1-9.1-1.7-11.9c-3.8-2.8-9.1-2.1-11.9,1.7
	l-70.8,94.5L347.4,386.5z M163.6,178.3l14.8-29.5l35.8,89.4c2.6,6.5,8.8,10.8,15.8,10.7h0.3c7.1-0.1,13.4-4.6,15.8-11.3l27.5-77
	l19.4,48.5c2.4,6,8,10.2,14.5,10.7c6.5,0.5,12.7-2.7,16-8.2l14.3-23.8h63.4c4.7,0,8.5-3.8,8.5-8.5s-3.8-8.5-8.5-8.5h-63.4
	c-6,0-11.5,3.2-14.6,8.3l-14.3,23.8l-19.4-48.4c-2.7-6.6-9.1-10.8-16.2-10.7c-7.1,0.1-13.4,4.6-15.8,11.3l-27.5,77l-35.8-89.4
	c-2.5-6.2-8.4-10.4-15.1-10.7c-6.7-0.3-13,3.4-16,9.4l-14.7,29.5H59.7c-4.7,0-8.5,3.8-8.5,8.5s3.8,8.5,8.5,8.5h88.6
	C154.8,187.8,160.7,184.1,163.6,178.3L163.6,178.3z M167.1,374.9c16.3,14.8,33.6,30.5,51.7,47.2c3.2,3,7.3,4.6,11.7,4.6
	c4.3,0,8.4-1.6,11.6-4.6c12.6-11.7,24.6-22.6,36.4-33.3c15.2,54.9,54.7,99.8,107.3,121.7c4.4,1.9,9.4,1.9,13.8,0
	C467.8,480.8,512,417.1,512,348.1v-66.8c0-9.1-7.1-16.6-16.1-17.1c-25.7-1.8-50.9-8.1-74.5-18.7c26.7-36.5,39.4-71,39.4-107.8
	C460.8,59.2,409.4,0,341.3,0c-61,0-96.4,42.7-110.9,65.5C215.9,42.7,180.5,0,119.5,0C51.4,0,0,59.2,0,137.8
	C0,223.6,66.5,283.8,167.1,374.9L167.1,374.9z M494.9,348.1c0,62.2-40.1,119.8-102.3,146.9h-0.2c-62.1-27-102.3-84.7-102.3-146.9
	l-0.1-66.7c22.6-1.2,73-9.8,102.2-34c29.6,24.2,80.1,32.8,102.6,33.9V348.1z M119.5,17.1c70.3,0,101.9,66.6,103.2,69.4
	c1.4,3,4.4,5,7.7,5c3.3,0,6.4-1.9,7.7-5c1.3-2.8,32.9-69.4,103.2-69.4c58.4,0,102.4,51.9,102.4,120.7c0,33.9-11.6,64.7-37,99
	c-1.2-0.9-2.4-1.7-3.6-2.7c-6.2-5-15-5-21.1,0c-27.2,22.2-76.2,29.3-92.8,30.1c-9.1,0.5-16.2,8-16.1,17.1v66.8
	c0,7.1,0.5,14.1,1.5,21.1c-14.1,12.8-28.8,26.1-44.2,40.4c-18.2-16.8-35.5-32.5-51.9-47.3C81.3,274.2,17.1,216,17.1,137.8
	C17.1,69,61.1,17.1,119.5,17.1L119.5,17.1z M119.5,51.2c4.7,0,8.5-3.8,8.5-8.5s-3.8-8.5-8.5-8.5c-49,0-77.4,42.2-83.8,84
	c-0.7,4.7,2.5,9,7.1,9.7c0.4,0.1,0.9,0.1,1.3,0.1c4.2,0,7.8-3.1,8.4-7.2C57.4,88.7,77.9,51.2,119.5,51.2z"/>
</svg>
