<?xml version="1.0" encoding="utf-8"?>
<!-- Generator: Adobe Illustrator 24.1.1, SVG Export Plug-In . SVG Version: 6.00 Build 0)  -->
<svg version="1.1" id="Camada_1" xmlns="http://www.w3.org/2000/svg" xmlns:xlink="http://www.w3.org/1999/xlink" x="0px" y="0px"
	 viewBox="0 0 512 512" style="enable-background:new 0 0 512 512;" xml:space="preserve">
<style type="text/css">
	.st0{fill:url(#Page-1_1_);}
</style>
<linearGradient id="Page-1_1_" gradientUnits="userSpaceOnUse" x1="256" y1="512" x2="256" y2="-0.1065">
	<stop  offset="0" style="stop-color:#348EAC"/>
	<stop  offset="1" style="stop-color:#5DD39E"/>
</linearGradient>
<path id="Page-1" class="st0" d="M384,256H264.5v-34.6c59.4-4.6,104.6-55.3,102.3-114.9C364.6,47,315.6-0.1,256-0.1
	S147.4,47,145.1,106.6c-2.3,59.6,42.9,110.3,102.3,114.9V256H128C57.3,256.1,0.1,313.3,0,384v110.9c0,9.4,7.6,17.1,17.1,17.1h477.9
	c9.4,0,17.1-7.6,17.1-17.1V384C511.9,313.3,454.7,256.1,384,256z M162.1,110.9c0-51.8,42-93.9,93.9-93.9s93.9,42,93.9,93.9
	s-42,93.9-93.9,93.9C204.2,204.7,162.2,162.7,162.1,110.9z M17.1,384c0-61.3,49.7-110.9,110.9-110.9S238.9,322.7,238.9,384v110.9
	h-59.7V382.4c11.7-4.1,18.8-16.1,16.7-28.4s-12.8-21.2-25.2-21.2H68.3c-12.5,0-23.1,8.9-25.2,21.2c-2.1,12.3,4.9,24.3,16.7,28.4
	v112.5H17.1V384z M170.7,366.9H68.3c-4.7,0-8.5-3.8-8.5-8.5s3.8-8.5,8.5-8.5h102.4c4.7,0,8.5,3.8,8.5,8.5S175.4,366.9,170.7,366.9z
	 M76.8,384h85.3v68.3h-51.2c-4.7,0-8.5,3.8-8.5,8.5s3.8,8.5,8.5,8.5h8.5v25.6H76.8V384z M136.5,469.3h25.6v25.6h-25.6V469.3z
	 M494.9,494.9H256V384c-0.1-45.8-24.6-88.2-64.4-110.9H384c61.2,0.1,110.9,49.7,110.9,110.9V494.9z M384,290.1H264.3
	c-4.7,0-8.5,3.8-8.5,8.5s3.8,8.5,8.5,8.5H384c42.4,0,76.8,34.4,76.8,76.8c0,4.7,3.8,8.5,8.5,8.5c4.7,0,8.5-3.8,8.5-8.5
	C477.8,332.2,435.8,290.2,384,290.1z M281.6,162.1v-25.6h25.6c9.4,0,17.1-7.6,17.1-17.1v-17.1c0-9.4-7.6-17.1-17.1-17.1h-25.6V59.7
	c0-9.4-7.6-17.1-17.1-17.1h-17.1c-9.4,0-17.1,7.6-17.1,17.1v25.6h-25.6c-9.4,0-17.1,7.6-17.1,17.1v17.1c0,9.4,7.6,17.1,17.1,17.1
	h25.6v25.6c0,9.4,7.6,17.1,17.1,17.1h17.1C274,179.2,281.6,171.6,281.6,162.1z M230.4,119.5h-25.6v-17.1h25.6
	c9.4,0,17.1-7.6,17.1-17.1V59.7h17.1v25.6c0,9.4,7.6,17.1,17.1,17.1h25.6v17.1h-25.6c-9.4,0-17.1,7.6-17.1,17.1v25.6h-17.1v-25.6
	C247.5,127.1,239.8,119.5,230.4,119.5z"/>
</svg>
