<?xml version="1.0" encoding="utf-8"?>
<!-- Generator: Adobe Illustrator 24.1.1, SVG Export Plug-In . SVG Version: 6.00 Build 0)  -->
<svg version="1.1" id="Camada_1" xmlns="http://www.w3.org/2000/svg" xmlns:xlink="http://www.w3.org/1999/xlink" x="0px" y="0px"
	 viewBox="0 0 512 512" style="enable-background:new 0 0 512 512;" xml:space="preserve">
<style type="text/css">
	.st0{fill:url(#Page-1_1_);}
</style>
<linearGradient id="Page-1_1_" gradientUnits="userSpaceOnUse" x1="256.0129" y1="512" x2="256.0129" y2="-6.737137e-03">
	<stop  offset="0" style="stop-color:#348EAC"/>
	<stop  offset="1" style="stop-color:#5DD39E"/>
</linearGradient>
<path id="Page-1" class="st0" d="M379.3,2.4c-9.4,4.4-15.2,14-14.7,24.3c0.5,10.3,7.1,19.4,16.8,22.9l24.1,8.8l-11.7,32.1l-24.1-8.8
	c-13.3-4.8-28,2-32.8,15.3l-81.7,224.5c-4.8,13.3,2,28,15.3,32.8c-8.1,22.1,3.4,46.6,25.5,54.7l-33,90.7c-1.1,2.9-0.6,6.1,1.4,8.5
	c2,2.4,5.1,3.5,8.1,3c3-0.6,5.5-2.7,6.5-5.6l33-90.7c22.1,8.1,46.6-3.4,54.7-25.5c13.3,4.8,28-2,32.8-15.3l81.7-224.5
	c2.3-6.4,2-13.4-0.9-19.6c-2.9-6.2-8.1-10.9-14.4-13.2l-24.1-8.8l11.7-32.1l24.1,8.8c2.8,1,5.8,1.5,8.8,1.5
	c12.4,0,23.1-8.9,25.2-21.1s-4.8-24.3-16.5-28.5l-96.2-35C392.6-0.8,385.5-0.5,379.3,2.4L379.3,2.4z M438.4,217.4
	c-4-2.6-8.3-4.7-12.8-6.3c-10.9-4.2-22.9-4.9-34.2-2.1c-17,4.2-34.9-2.3-45.2-16.5c-5.2-7.1-11.9-12.9-19.7-16.9l6-16.6l8,2.9
	c0.9,0.3,1.9,0.5,2.9,0.5c4.1,0,7.7-3,8.4-7.1c0.7-4.1-1.6-8.1-5.5-9.5l-8-2.9l5.8-16l112.3,40.9L438.4,217.4z M337.5,398
	c-6.2,2.9-13.2,3.2-19.6,0.9l-16-5.8c-6.4-2.3-11.6-7.1-14.5-13.2c-2.9-6.2-3.2-13.2-0.9-19.6l32.1,11.7l32.1,11.7
	C348.4,390,343.6,395.2,337.5,398z M383.5,368.3c-0.8,2.1-2.4,3.9-4.4,4.8s-4.4,1.1-6.5,0.3l-77.5-28.2l-10.7-3.9l-8-2.9
	c-2.1-0.8-3.9-2.4-4.8-4.4s-1.1-4.4-0.3-6.5l2.9-8l8,2.9c0.9,0.3,1.9,0.5,2.9,0.5c4.1,0,7.7-3,8.4-7.1s-1.6-8.1-5.5-9.5l-8-2.9
	l8.8-24.1l8,2.9c0.9,0.3,1.9,0.5,2.9,0.5c4.1,0,7.7-3,8.4-7.1c0.7-4.1-1.6-8.1-5.5-9.5l-8-2.9l8.8-24.1l8,2.9
	c0.9,0.3,1.9,0.5,2.9,0.5c4.1,0,7.7-3,8.4-7.1c0.7-4.1-1.6-8.1-5.5-9.5l-8-2.9l11.4-31.4c4.8,3,9,6.9,12.3,11.5
	c14.3,19,38.5,27.8,61.7,22.5c8.3-2.3,17.1-1.8,25.1,1.3c4.6,1.5,8.9,3.9,12.6,7L383.5,368.3z M465,137.2c1,2.1,1.1,4.4,0.3,6.5
	l-2.9,8L350,110.9l2.9-8c0.8-2.1,2.4-3.9,4.4-4.8c2.1-1,4.4-1.1,6.5-0.3l58.8,21.4l5.3,1.9l32.1,11.7
	C462.3,133.6,464,135.2,465,137.2L465,137.2z M409.9,96.3l11.7-32.1l16,5.8l-11.7,32.1L409.9,96.3z M494.2,57c1,2.1,1.1,4.4,0.3,6.5
	c-0.8,2.1-2.4,3.9-4.4,4.8c-2.1,1-4.4,1.1-6.5,0.3L451.4,57l-32.1-11.7l-32.1-11.7c-2.9-1-5.1-3.5-5.6-6.5c-0.6-3,0.6-6.1,3-8.1
	c2.4-2,5.6-2.5,8.5-1.4l96.2,35C491.4,53.4,493.2,55,494.2,57L494.2,57z M360.2,232.6c-4.4-1.6-9.3,0.7-10.9,5.1s0.7,9.3,5.1,10.9
	c4.4,1.6,9.3-0.7,10.9-5.1c0.8-2.1,0.7-4.5-0.3-6.5C364.1,235,362.3,233.4,360.2,232.6L360.2,232.6z M336.1,323.8
	c-4.4-1.6-9.3,0.7-10.9,5.1c-1.6,4.4,0.7,9.3,5.1,10.9s9.3-0.7,10.9-5.1c0.8-2.1,0.7-4.5-0.3-6.5S338.3,324.5,336.1,323.8
	L336.1,323.8z M377,311.4c-4.4-1.6-9.3,0.7-10.9,5.1c-1.6,4.4,0.7,9.3,5.1,10.9s9.3-0.7,10.9-5.1c0.8-2.1,0.7-4.5-0.3-6.5
	S379.1,312.2,377,311.4L377,311.4z M403.2,239.2c-4.4-1.6-9.3,0.7-10.9,5.1c-1.6,4.4,0.7,9.3,5.1,10.9c4.4,1.6,9.3-0.7,10.9-5.1
	c0.8-2.1,0.7-4.5-0.3-6.5C407.1,241.6,405.4,240,403.2,239.2L403.2,239.2z M383.5,268.4c-4.4-1.6-9.3,0.7-10.9,5.1
	c-1.6,4.4,0.7,9.3,5.1,10.9c4.4,1.6,9.3-0.7,10.9-5.1c0.8-2.1,0.7-4.5-0.3-6.5S385.7,269.1,383.5,268.4L383.5,268.4z M345.6,272.7
	c-4.4-1.6-9.3,0.7-10.9,5.1c-1.6,4.4,0.7,9.3,5.1,10.9c4.4,1.6,9.3-0.7,10.9-5.1c0.8-2.1,0.7-4.5-0.3-6.5
	C349.5,275.1,347.7,273.5,345.6,272.7L345.6,272.7z M42.7,512h153.6c23.6,0,42.6-19.1,42.7-42.7V298.7c0-33-26.8-59.7-59.7-59.7
	c-4.7,0-8.5-3.8-8.5-8.5v-8.5h8.5c9.4,0,17.1-7.6,17.1-17.1v-51.2c0-9.4-7.6-17.1-17.1-17.1H59.7c-9.4,0-17.1,7.6-17.1,17.1v51.2
	c0,9.4,7.6,17.1,17.1,17.1h8.5v8.5c0,4.7-3.8,8.5-8.5,8.5C26.8,239,0,265.7,0,298.7v170.7C0,492.9,19.1,512,42.7,512z M221.9,298.7
	v34.1H17.1v-34.1c0-1.3,0.3-2.6,0.4-3.9c1.8,0.9,3.6,1.8,5.4,2.9c10.5,6.5,22.6,9.9,34.9,9.6c12.3,0.3,24.5-3.1,35-9.6
	c8-5.1,17.3-7.7,26.7-7.5c9.4-0.2,18.7,2.4,26.7,7.5c10.5,6.5,22.6,9.9,34.9,9.6c12.3,0.3,24.4-3.1,34.9-9.6c1.9-1,3.6-2,5.4-2.9
	C221.6,296,221.9,297.3,221.9,298.7z M221.9,435.2H17.1v-85.3h204.8V435.2z M196.3,494.9H42.7c-14.1,0-25.6-11.5-25.6-25.6v-17.1
	h204.8v17.1C221.9,483.5,210.4,494.9,196.3,494.9z M102.4,204.8v-51.2h34.1v51.2H102.4z M179.2,204.8h-25.6v-51.2h25.6V204.8z
	 M59.7,153.6h25.6v51.2H59.7V153.6z M59.7,256c14.1,0,25.6-11.5,25.6-25.6v-8.5h68.3v8.5c0,14.1,11.5,25.6,25.6,25.6
	c15.5,0.1,29.8,8.6,37.2,22.2c-3.2,1.4-6.1,3-8.7,4.4c-7.9,5.1-17.2,7.7-26.6,7.5c-9.4,0.2-18.7-2.4-26.7-7.5
	c-10.5-6.5-22.6-9.9-34.9-9.6c-12.3-0.3-24.5,3.1-34.9,9.6c-8,5.1-17.3,7.7-26.8,7.5c-9.4,0.2-18.7-2.4-26.7-7.5
	c-2.6-1.5-5.5-3-8.7-4.4C29.9,264.6,44.2,256.1,59.7,256L59.7,256z M68.3,384h102.4c4.7,0,8.5-3.8,8.5-8.5c0-4.7-3.8-8.5-8.5-8.5
	H68.3c-4.7,0-8.5,3.8-8.5,8.5C59.7,380.2,63.6,384,68.3,384z M162.1,401.1H76.8c-4.7,0-8.5,3.8-8.5,8.5c0,4.7,3.8,8.5,8.5,8.5h85.3
	c4.7,0,8.5-3.8,8.5-8.5C170.7,404.9,166.8,401.1,162.1,401.1z"/>
</svg>
