<svg xmlns="http://www.w3.org/2000/svg" version="1.1" viewBox="0.00 0.00 512.00 512.00">
<g stroke-width="2.00" fill="none" stroke-linecap="butt">
<path stroke="#48696e" vector-effect="non-scaling-stroke" d="
  M 191.21 0.00
  Q 169.15 4.47 154.00 17.98
  Q 131.52 38.02 129.99 69.00
  Q 129.71 74.64 130.21 90.01"
/>
<path stroke="#9e847b" vector-effect="non-scaling-stroke" d="
  M 130.21 90.01
  C 113.68 100.92 102.45 117.30 98.91 136.94
  Q 98.07 141.59 97.20 146.31"
/>
<path stroke="#48696e" vector-effect="non-scaling-stroke" d="
  M 252.04 35.25
  C 256.55 48.18 256.79 61.73 256.37 75.29"
/>
<path stroke="#a9a3a0" vector-effect="non-scaling-stroke" d="
  M 256.37 75.29
  Q 240.28 71.67 224.35 71.08"
/>
<path stroke="#a99490" vector-effect="non-scaling-stroke" d="
  M 224.35 71.08
  C 192.63 68.46 157.12 73.25 130.21 90.01"
/>
<path stroke="#9e938c" vector-effect="non-scaling-stroke" d="
  M 325.72 145.27
  Q 324.95 142.57 324.57 139.77
  C 319.55 103.34 290.14 82.56 256.37 75.29"
/>
<path stroke="#ffbeae" vector-effect="non-scaling-stroke" d="
  M 224.35 71.08
  Q 212.09 72.68 200.27 75.04
  C 159.95 83.08 129.76 109.44 129.51 153.00
  Q 129.42 169.62 129.52 214.44
  Q 129.55 227.69 130.53 234.40
  C 138.05 286.36 188.84 325.72 241.52 317.63
  Q 242.51 317.48 243.50 317.53"
/>
<path stroke="#feab58" vector-effect="non-scaling-stroke" d="
  M 265.33 350.48
  C 258.33 396.58 203.81 413.45 171.49 380.04"
/>
<path stroke="#fba18f" vector-effect="non-scaling-stroke" d="
  M 171.49 380.04
  Q 188.28 380.20 204.44 380.19
  C 208.25 380.19 209.74 377.33 209.74 373.72
  Q 209.77 346.77 209.74 319.69
  Q 209.74 319.11 209.17 319.10
  C 201.48 318.88 193.68 319.53 186.07 318.37
  Q 182.78 317.87 179.51 318.14"
/>
<path stroke="#ffbeae" vector-effect="non-scaling-stroke" d="
  M 98.31 234.76
  C 96.30 213.38 97.58 191.00 97.32 169.56"
/>
<path stroke="#ffbeae" vector-effect="non-scaling-stroke" d="
  M 326.08 169.69
  C 325.51 172.46 325.99 175.48 325.99 177.54
  C 326.05 199.91 327.02 217.20 324.82 234.75"
/>
<path stroke="#d59676" vector-effect="non-scaling-stroke" d="
  M 157.8602 164.4029
  A 7.09 7.09 0.0 0 0 150.7825 157.3006
  L 150.1626 157.2995
  A 7.09 7.09 0.0 0 0 143.0602 164.3771
  L 143.0198 187.4971
  A 7.09 7.09 0.0 0 0 150.0975 194.5994
  L 150.7174 194.6005
  A 7.09 7.09 0.0 0 0 157.8198 187.5229
  L 157.8602 164.4029"
/>
<path stroke="#d59676" vector-effect="non-scaling-stroke" d="
  M 280.1797 164.3072
  A 7.05 7.05 0.0 0 0 273.1174 157.2695
  L 272.5374 157.2705
  A 7.05 7.05 0.0 0 0 265.4997 164.3328
  L 265.5403 187.5928
  A 7.05 7.05 0.0 0 0 272.6026 194.6305
  L 273.1826 194.6295
  A 7.05 7.05 0.0 0 0 280.2203 187.5672
  L 280.1797 164.3072"
/>
<path stroke="#d59676" vector-effect="non-scaling-stroke" d="
  M 229.44 212.12
  C 229.15 203.03 216.38 205.42 209.87 205.16
  Q 209.36 205.14 209.36 204.63
  Q 209.22 190.50 209.24 176.38
  Q 209.25 172.29 208.10 170.35
  C 205.58 166.08 198.33 166.02 195.76 170.19
  Q 194.52 172.20 194.51 176.57
  Q 194.48 190.09 194.51 203.63
  C 194.54 215.75 199.95 219.80 211.73 220.23
  C 219.04 220.50 229.75 221.81 229.44 212.12"
/>
<path stroke="#d59676" vector-effect="non-scaling-stroke" d="
  M 257.94 270.57
  C 250.05 252.20 231.10 240.40 211.43 240.53
  C 191.65 240.67 174.63 251.67 165.77 269.49
  C 161.18 278.73 174.19 285.61 179.33 275.61
  C 193.02 248.98 230.23 248.69 243.90 275.48
  C 248.90 285.28 261.55 278.95 257.94 270.57"
/>
<path stroke="#fa9d4a" vector-effect="non-scaling-stroke" d="
  M 171.49 380.04
  Q 160.12 368.02 157.81 350.39"
/>
<path stroke="#fd5662" vector-effect="non-scaling-stroke" d="
  M 397.76 318.68
  L 397.00 319.46
  Q 396.68 319.79 396.24 319.89
  C 329.77 334.52 296.37 410.43 334.65 468.02
  Q 356.62 501.07 397.97 510.66"
/>
<path stroke="#fd7734" vector-effect="non-scaling-stroke" d="
  M 309.75 479.27
  L 309.93 478.98
  Q 310.14 478.66 309.90 478.37
  C 278.28 440.51 278.38 388.12 310.68 350.54"
/>
<path stroke="#feb2b7" vector-effect="non-scaling-stroke" d="
  M 334.28 444.00
  C 340.79 450.91 347.56 458.41 354.74 464.47
  A 3.39 3.39 0.0 0 0 359.33 464.28
  L 383.29 440.34
  Q 383.70 439.93 384.11 440.34
  L 408.03 464.11
  A 3.16 3.15 -45.1 0 0 412.49 464.10
  L 432.94 443.69
  A 3.46 3.44 45.1 0 0 432.94 438.81
  L 409.19 415.07
  Q 408.88 414.76 409.19 414.45
  L 433.36 390.22
  A 3.35 3.34 -45.1 0 0 433.36 385.49
  L 413.44 365.56
  A 3.46 3.46 0.0 0 0 408.55 365.55
  L 384.38 389.42
  Q 383.96 389.83 383.54 389.41
  L 359.93 365.81
  A 3.27 3.26 -45.1 0 0 355.31 365.82
  L 334.88 386.24
  A 3.36 3.36 0.0 0 0 334.88 390.98
  L 358.47 414.66
  Q 358.82 415.01 358.48 415.36
  L 334.34 439.70
  A 3.10 3.09 -44.3 0 0 334.28 444.00"
/>
<path stroke="#fc970a" vector-effect="non-scaling-stroke" d="
  M 113.74 350.26
  Q 113.91 351.36 113.39 351.48
  C 91.70 356.69 73.76 375.77 73.75 398.50
  Q 73.74 436.10 73.76 473.69
  Q 73.76 475.78 77.37 479.31"
/>
</g>
<path fill="#3d5959" d="
  M 162.80 0.00
  L 191.21 0.00
  Q 169.15 4.47 154.00 17.98
  Q 131.52 38.02 129.99 69.00
  Q 129.71 74.64 130.21 90.01
  C 113.68 100.92 102.45 117.30 98.91 136.94
  Q 98.07 141.59 97.20 146.31
  Q 97.18 112.23 97.21 78.26
  Q 97.23 64.72 98.36 58.33
  C 104.12 26.01 130.67 3.78 162.80 0.00
  Z"
/>
<path fill="#537982" d="
  M 191.21 0.00
  L 198.06 0.00
  C 223.18 1.81 242.55 10.73 252.04 35.25
  C 256.55 48.18 256.79 61.73 256.37 75.29
  Q 240.28 71.67 224.35 71.08
  C 192.63 68.46 157.12 73.25 130.21 90.01
  Q 129.71 74.64 129.99 69.00
  Q 131.52 38.02 154.00 17.98
  Q 169.15 4.47 191.21 0.00
  Z"
/>
<path fill="#3d5959" d="
  M 325.72 145.27
  Q 324.95 142.57 324.57 139.77
  C 319.55 103.34 290.14 82.56 256.37 75.29
  C 256.79 61.73 256.55 48.18 252.04 35.25
  C 280.07 17.93 315.93 31.58 324.28 63.55
  Q 325.70 68.99 325.82 78.22
  Q 326.26 111.73 325.72 145.27
  Z"
/>
<path fill="#ffaf9d" d="
  M 224.35 71.08
  Q 212.09 72.68 200.27 75.04
  C 159.95 83.08 129.76 109.44 129.51 153.00
  Q 129.42 169.62 129.52 214.44
  Q 129.55 227.69 130.53 234.40
  C 138.05 286.36 188.84 325.72 241.52 317.63
  Q 242.51 317.48 243.50 317.53
  L 243.50 349.75
  A 0.75 0.75 0.0 0 0 244.25 350.50
  L 265.33 350.48
  C 258.33 396.58 203.81 413.45 171.49 380.04
  Q 188.28 380.20 204.44 380.19
  C 208.25 380.19 209.74 377.33 209.74 373.72
  Q 209.77 346.77 209.74 319.69
  Q 209.74 319.11 209.17 319.10
  C 201.48 318.88 193.68 319.53 186.07 318.37
  Q 182.78 317.87 179.51 318.14
  Q 179.58 317.43 179.19 317.35
  C 137.14 308.63 105.12 277.35 98.31 234.76
  C 96.30 213.38 97.58 191.00 97.32 169.56
  L 97.20 146.31
  Q 98.07 141.59 98.91 136.94
  C 102.45 117.30 113.68 100.92 130.21 90.01
  C 157.12 73.25 192.63 68.46 224.35 71.08
  Z"
/>
<path fill="#ffcdbe" d="
  M 224.35 71.08
  Q 240.28 71.67 256.37 75.29
  C 290.14 82.56 319.55 103.34 324.57 139.77
  Q 324.95 142.57 325.72 145.27
  L 326.08 169.69
  C 325.51 172.46 325.99 175.48 325.99 177.54
  C 326.05 199.91 327.02 217.20 324.82 234.75
  C 317.92 277.13 286.10 308.61 244.25 317.12
  Q 243.99 317.18 243.78 317.35
  Q 243.65 317.47 243.50 317.53
  Q 242.51 317.48 241.52 317.63
  C 188.84 325.72 138.05 286.36 130.53 234.40
  Q 129.55 227.69 129.52 214.44
  Q 129.42 169.62 129.51 153.00
  C 129.76 109.44 159.95 83.08 200.27 75.04
  Q 212.09 72.68 224.35 71.08
  Z
  M 157.8602 164.4029
  A 7.09 7.09 0.0 0 0 150.7825 157.3006
  L 150.1626 157.2995
  A 7.09 7.09 0.0 0 0 143.0602 164.3771
  L 143.0198 187.4971
  A 7.09 7.09 0.0 0 0 150.0975 194.5994
  L 150.7174 194.6005
  A 7.09 7.09 0.0 0 0 157.8198 187.5229
  L 157.8602 164.4029
  Z
  M 280.1797 164.3072
  A 7.05 7.05 0.0 0 0 273.1174 157.2695
  L 272.5374 157.2705
  A 7.05 7.05 0.0 0 0 265.4997 164.3328
  L 265.5403 187.5928
  A 7.05 7.05 0.0 0 0 272.6026 194.6305
  L 273.1826 194.6295
  A 7.05 7.05 0.0 0 0 280.2203 187.5672
  L 280.1797 164.3072
  Z
  M 229.44 212.12
  C 229.15 203.03 216.38 205.42 209.87 205.16
  Q 209.36 205.14 209.36 204.63
  Q 209.22 190.50 209.24 176.38
  Q 209.25 172.29 208.10 170.35
  C 205.58 166.08 198.33 166.02 195.76 170.19
  Q 194.52 172.20 194.51 176.57
  Q 194.48 190.09 194.51 203.63
  C 194.54 215.75 199.95 219.80 211.73 220.23
  C 219.04 220.50 229.75 221.81 229.44 212.12
  Z
  M 257.94 270.57
  C 250.05 252.20 231.10 240.40 211.43 240.53
  C 191.65 240.67 174.63 251.67 165.77 269.49
  C 161.18 278.73 174.19 285.61 179.33 275.61
  C 193.02 248.98 230.23 248.69 243.90 275.48
  C 248.90 285.28 261.55 278.95 257.94 270.57
  Z"
/>
<rect fill="#ab5e2e" x="-7.40" y="-18.65" transform="translate(150.44,175.95) rotate(0.1)" width="14.80" height="37.30" rx="7.09"/>
<rect fill="#ab5e2e" x="-7.34" y="-18.68" transform="translate(272.86,175.95) rotate(-0.1)" width="14.68" height="37.36" rx="7.05"/>
<path fill="#ab5e2e" d="
  M 209.87 205.16
  C 216.38 205.42 229.15 203.03 229.44 212.12
  C 229.75 221.81 219.04 220.50 211.73 220.23
  C 199.95 219.80 194.54 215.75 194.51 203.63
  Q 194.48 190.09 194.51 176.57
  Q 194.52 172.20 195.76 170.19
  C 198.33 166.02 205.58 166.08 208.10 170.35
  Q 209.25 172.29 209.24 176.38
  Q 209.22 190.50 209.36 204.63
  Q 209.36 205.14 209.87 205.16
  Z"
/>
<path fill="#ffcdbe" d="
  M 97.32 169.56
  C 97.58 191.00 96.30 213.38 98.31 234.76
  C 84.52 234.75 67.69 237.37 62.07 220.90
  Q 60.72 216.94 60.75 207.99
  C 60.81 193.66 57.94 177.56 73.79 171.31
  C 80.23 168.78 89.74 169.44 97.32 169.56
  Z"
/>
<path fill="#ffaf9d" d="
  M 324.82 234.75
  C 327.02 217.20 326.05 199.91 325.99 177.54
  C 325.99 175.48 325.51 172.46 326.08 169.69
  C 338.89 168.94 355.28 167.91 360.92 182.65
  Q 362.50 186.79 362.53 196.16
  C 362.55 203.70 363.70 214.98 360.92 221.79
  C 354.54 237.41 338.53 234.80 324.82 234.75
  Z"
/>
<path fill="#ab5e2e" d="
  M 211.43 240.53
  C 231.10 240.40 250.05 252.20 257.94 270.57
  C 261.55 278.95 248.90 285.28 243.90 275.48
  C 230.23 248.69 193.02 248.98 179.33 275.61
  C 174.19 285.61 161.18 278.73 165.77 269.49
  C 174.63 251.67 191.65 240.67 211.43 240.53
  Z"
/>
<path fill="#f69380" d="
  M 171.49 380.04
  Q 160.12 368.02 157.81 350.39
  L 178.69 350.30
  A 0.83 0.83 0.0 0 0 179.51 349.47
  L 179.51 318.14
  Q 182.78 317.87 186.07 318.37
  C 193.68 319.53 201.48 318.88 209.17 319.10
  Q 209.74 319.11 209.74 319.69
  Q 209.77 346.77 209.74 373.72
  C 209.74 377.33 208.25 380.19 204.44 380.19
  Q 188.28 380.20 171.49 380.04
  Z"
/>
<path fill="#fc4755" d="
  M 397.76 318.68
  L 397.00 319.46
  Q 396.68 319.79 396.24 319.89
  C 329.77 334.52 296.37 410.43 334.65 468.02
  Q 356.62 501.07 397.97 510.66
  L 390.67 512.00
  L 376.94 512.00
  Q 337.55 508.41 310.94 479.56
  Q 310.57 479.17 309.75 479.27
  L 309.93 478.98
  Q 310.14 478.66 309.90 478.37
  C 278.28 440.51 278.38 388.12 310.68 350.54
  Q 315.35 345.48 319.19 342.19
  Q 352.87 313.27 397.76 318.68
  Z"
/>
<path fill="#fd646f" d="
  M 397.76 318.68
  Q 447.01 327.60 469.84 369.57
  C 494.69 415.24 477.68 471.79 433.75 498.24
  Q 416.56 508.58 397.97 510.66
  Q 356.62 501.07 334.65 468.02
  C 296.37 410.43 329.77 334.52 396.24 319.89
  Q 396.68 319.79 397.00 319.46
  L 397.76 318.68
  Z
  M 334.28 444.00
  C 340.79 450.91 347.56 458.41 354.74 464.47
  A 3.39 3.39 0.0 0 0 359.33 464.28
  L 383.29 440.34
  Q 383.70 439.93 384.11 440.34
  L 408.03 464.11
  A 3.16 3.15 -45.1 0 0 412.49 464.10
  L 432.94 443.69
  A 3.46 3.44 45.1 0 0 432.94 438.81
  L 409.19 415.07
  Q 408.88 414.76 409.19 414.45
  L 433.36 390.22
  A 3.35 3.34 -45.1 0 0 433.36 385.49
  L 413.44 365.56
  A 3.46 3.46 0.0 0 0 408.55 365.55
  L 384.38 389.42
  Q 383.96 389.83 383.54 389.41
  L 359.93 365.81
  A 3.27 3.26 -45.1 0 0 355.31 365.82
  L 334.88 386.24
  A 3.36 3.36 0.0 0 0 334.88 390.98
  L 358.47 414.66
  Q 358.82 415.01 358.48 415.36
  L 334.34 439.70
  A 3.10 3.09 -44.3 0 0 334.28 444.00
  Z"
/>
<path fill="#fa8701" d="
  M 113.74 350.26
  Q 113.91 351.36 113.39 351.48
  C 91.70 356.69 73.76 375.77 73.75 398.50
  Q 73.74 436.10 73.76 473.69
  Q 73.76 475.78 77.37 479.31
  Q 46.00 479.86 37.50 479.48
  C 31.64 479.22 30.51 475.11 30.50 469.82
  Q 30.49 435.03 30.52 400.24
  C 30.53 377.25 46.92 356.80 69.43 351.70
  C 81.69 348.92 99.65 350.19 113.74 350.26
  Z"
/>
<path fill="#fda613" d="
  M 113.74 350.26
  L 157.81 350.39
  Q 160.12 368.02 171.49 380.04
  C 203.81 413.45 258.33 396.58 265.33 350.48
  L 310.68 350.54
  C 278.38 388.12 278.28 440.51 309.90 478.37
  Q 310.14 478.66 309.93 478.98
  L 309.75 479.27
  L 77.37 479.31
  Q 73.76 475.78 73.76 473.69
  Q 73.74 436.10 73.75 398.50
  C 73.76 375.77 91.70 356.69 113.39 351.48
  Q 113.91 351.36 113.74 350.26
  Z"
/>
<path fill="#ffffff" d="
  M 354.74 464.47
  C 347.56 458.41 340.79 450.91 334.28 444.00
  A 3.10 3.09 -44.3 0 1 334.34 439.70
  L 358.48 415.36
  Q 358.82 415.01 358.47 414.66
  L 334.88 390.98
  A 3.36 3.36 0.0 0 1 334.88 386.24
  L 355.31 365.82
  A 3.27 3.26 -45.1 0 1 359.93 365.81
  L 383.54 389.41
  Q 383.96 389.83 384.38 389.42
  L 408.55 365.55
  A 3.46 3.46 0.0 0 1 413.44 365.56
  L 433.36 385.49
  A 3.35 3.34 -45.1 0 1 433.36 390.22
  L 409.19 414.45
  Q 408.88 414.76 409.19 415.07
  L 432.94 438.81
  A 3.46 3.44 45.1 0 1 432.94 443.69
  L 412.49 464.10
  A 3.16 3.15 -45.1 0 1 408.03 464.11
  L 384.11 440.34
  Q 383.70 439.93 383.29 440.34
  L 359.33 464.28
  A 3.39 3.39 0.0 0 1 354.74 464.47
  Z"
/>
</svg>
