<?xml version="1.0" encoding="UTF-8" standalone="no"?>
<!DOCTYPE svg PUBLIC "-//W3C//DTD SVG 1.1//EN" "http://www.w3.org/Graphics/SVG/1.1/DTD/svg11.dtd">
<svg xmlns="http://www.w3.org/2000/svg" version="1.1" viewBox="0.00 0.00 512.00 512.00">
<g stroke-width="2.00" fill="none" stroke-linecap="butt">
<path stroke="#fabc0e" vector-effect="non-scaling-stroke" d="
  M 109.56 0.00
  C 107.32 1.53 104.51 2.06 102.57 3.15
  C 83.16 14.09 84.35 40.89 104.36 50.32
  C 109.71 52.84 116.89 52.49 122.50 52.49
  Q 204.12 52.57 417.26 52.46"
/>
<path stroke="#fabc0e" vector-effect="non-scaling-stroke" d="
  M 416.30 73.24
  Q 275.10 73.26 134.12 73.25
  C 123.91 73.25 116.98 78.96 118.16 90.06
  C 126.66 169.90 163.14 269.82 256.43 281.97
  C 266.91 283.34 276.57 282.40 286.70 280.14"
/>
<path stroke="#fabc0e" vector-effect="non-scaling-stroke" d="
  M 287.03 301.44
  Q 261.60 305.24 240.07 303.16
  Q 236.27 302.79 223.90 301.14"
/>
<path stroke="#fabc0e" vector-effect="non-scaling-stroke" d="
  M 130.77 242.86
  Q 118.87 225.95 109.61 208.21"
/>
<path stroke="#fabc0e" vector-effect="non-scaling-stroke" d="
  M 81.26 119.99
  Q 78.25 104.49 76.84 88.98"
/>
<path stroke="#fabc0e" vector-effect="non-scaling-stroke" d="
  M 414.57 88.99
  L 409.82 119.97"
/>
<path stroke="#fabc0e" vector-effect="non-scaling-stroke" d="
  M 376.84 211.92
  Q 366.92 228.67 353.32 243.17"
/>
<path stroke="#fb8d2e" vector-effect="non-scaling-stroke" d="
  M 226.53 170.50
  A 1.03 1.02 27.3 0 1 226.90 171.64
  Q 221.40 188.44 215.88 205.56
  C 214.41 210.12 212.74 214.09 217.33 216.44
  C 220.31 217.96 222.57 216.14 225.01 214.38
  Q 240.29 203.36 255.59 192.22
  Q 256.01 191.92 256.43 192.22
  Q 272.79 204.02 289.07 215.92
  C 292.69 218.57 299.16 215.12 297.75 210.75
  Q 291.38 191.00 285.07 171.56
  A 0.90 0.89 -27.6 0 1 285.39 170.55
  Q 301.58 158.84 317.75 147.01
  C 322.11 143.82 320.05 136.95 314.73 136.98
  Q 294.64 137.08 274.36 136.97
  Q 273.83 136.96 273.67 136.47
  Q 267.41 117.37 261.25 98.25
  C 259.82 93.80 252.69 92.74 251.05 97.60
  Q 244.53 116.96 238.31 136.54
  Q 238.16 137.00 237.67 137.00
  Q 217.97 136.99 198.04 137.02
  C 195.91 137.02 193.96 137.66 192.82 139.33
  C 190.33 142.95 192.32 145.57 195.48 147.88
  Q 211.05 159.28 226.53 170.50"
/>
<path stroke="#fabc0e" vector-effect="non-scaling-stroke" d="
  M 435.36 89.00
  L 430.87 120.00"
/>
<path stroke="#fabc0e" vector-effect="non-scaling-stroke" d="
  M 380.47 243.00
  Q 393.00 226.58 402.05 208.20"
/>
<path stroke="#fabc0e" vector-effect="non-scaling-stroke" d="
  M 335.88 373.06
  Q 334.43 373.97 333.69 373.97
  Q 255.72 374.03 177.75 374.16
  Q 174.32 374.17 174.91 372.82"
/>
<path stroke="#fabc0e" vector-effect="non-scaling-stroke" d="
  M 382.35 389.54
  Q 268.18 389.42 154.25 389.56
  C 144.44 389.58 142.12 394.63 142.23 403.94
  Q 142.38 417.20 142.08 430.48"
/>
<path stroke="#a58d51" vector-effect="non-scaling-stroke" d="
  M 142.08 430.48
  L 126.51 430.45"
/>
<path stroke="#a5a44a" vector-effect="non-scaling-stroke" d="
  M 383.23 430.00
  L 382.78 430.29
  A 0.87 0.83 -61.1 0 1 382.30 430.44
  L 142.08 430.48"
/>
<path stroke="#3e6786" vector-effect="non-scaling-stroke" d="
  M 103.26 512.00
  Q 93.52 507.10 90.10 498.67
  Q 88.70 495.23 88.64 488.63
  Q 88.36 459.66 88.53 430.41"
/>
<path stroke="#3e6786" vector-effect="non-scaling-stroke" d="
  M 357.91 471.68
  A 7.66 7.66 0.0 0 0 350.25 464.02
  L 161.75 464.02
  A 7.66 7.66 0.0 0 0 154.09 471.68
  L 154.09 471.84
  A 7.66 7.66 0.0 0 0 161.75 479.50
  L 350.25 479.50
  A 7.66 7.66 0.0 0 0 357.91 471.84
  L 357.91 471.68"
/>
</g>
<path fill="#faa515" d="
  M 90.81 0.00
  L 109.56 0.00
  C 107.32 1.53 104.51 2.06 102.57 3.15
  C 83.16 14.09 84.35 40.89 104.36 50.32
  C 109.71 52.84 116.89 52.49 122.50 52.49
  Q 204.12 52.57 417.26 52.46
  L 416.30 73.24
  Q 275.10 73.26 134.12 73.25
  C 123.91 73.25 116.98 78.96 118.16 90.06
  C 126.66 169.90 163.14 269.82 256.43 281.97
  C 266.91 283.34 276.57 282.40 286.70 280.14
  L 287.03 301.44
  Q 261.60 305.24 240.07 303.16
  Q 236.27 302.79 223.90 301.14
  L 224.26 280.71
  Q 224.27 280.17 223.74 280.05
  Q 185.87 271.40 159.00 243.56
  Q 158.63 243.19 158.11 243.18
  L 130.77 242.86
  Q 118.87 225.95 109.61 208.21
  Q 122.37 210.96 134.45 211.95
  Q 135.01 211.99 134.73 211.51
  C 118.49 183.56 108.22 152.18 102.18 120.56
  A 0.68 0.68 0.0 0 0 101.51 120.00
  L 81.26 119.99
  Q 78.25 104.49 76.84 88.98
  L 96.64 88.95
  Q 97.25 88.95 97.18 88.35
  Q 94.99 70.84 94.70 53.20
  Q 94.69 52.70 94.20 52.68
  C 61.26 51.12 58.61 5.63 90.81 0.00
  Z"
/>
<path fill="#fad207" d="
  M 109.56 0.00
  L 419.56 0.00
  C 453.51 4.38 450.79 52.41 417.26 52.46
  Q 204.12 52.57 122.50 52.49
  C 116.89 52.49 109.71 52.84 104.36 50.32
  C 84.35 40.89 83.16 14.09 102.57 3.15
  C 104.51 2.06 107.32 1.53 109.56 0.00
  Z"
/>
<path fill="#fad207" d="
  M 416.30 73.24
  L 414.57 88.99
  L 409.82 119.97
  C 403.57 152.06 393.38 183.46 376.84 211.92
  Q 366.92 228.67 353.32 243.17
  C 334.44 261.95 313.18 274.64 286.70 280.14
  C 276.57 282.40 266.91 283.34 256.43 281.97
  C 163.14 269.82 126.66 169.90 118.16 90.06
  C 116.98 78.96 123.91 73.25 134.12 73.25
  Q 275.10 73.26 416.30 73.24
  Z
  M 226.53 170.50
  A 1.03 1.02 27.3 0 1 226.90 171.64
  Q 221.40 188.44 215.88 205.56
  C 214.41 210.12 212.74 214.09 217.33 216.44
  C 220.31 217.96 222.57 216.14 225.01 214.38
  Q 240.29 203.36 255.59 192.22
  Q 256.01 191.92 256.43 192.22
  Q 272.79 204.02 289.07 215.92
  C 292.69 218.57 299.16 215.12 297.75 210.75
  Q 291.38 191.00 285.07 171.56
  A 0.90 0.89 -27.6 0 1 285.39 170.55
  Q 301.58 158.84 317.75 147.01
  C 322.11 143.82 320.05 136.95 314.73 136.98
  Q 294.64 137.08 274.36 136.97
  Q 273.83 136.96 273.67 136.47
  Q 267.41 117.37 261.25 98.25
  C 259.82 93.80 252.69 92.74 251.05 97.60
  Q 244.53 116.96 238.31 136.54
  Q 238.16 137.00 237.67 137.00
  Q 217.97 136.99 198.04 137.02
  C 195.91 137.02 193.96 137.66 192.82 139.33
  C 190.33 142.95 192.32 145.57 195.48 147.88
  Q 211.05 159.28 226.53 170.50
  Z"
/>
<path fill="#fad207" d="
  M 76.84 88.98
  Q 78.25 104.49 81.26 119.99
  L 32.62 119.99
  Q 32.06 119.99 32.14 120.55
  Q 36.37 148.09 53.43 170.31
  Q 74.89 198.26 109.61 208.21
  Q 118.87 225.95 130.77 242.86
  C 57.45 237.73 3.03 180.98 0.00 107.43
  L 0.00 103.19
  C 1.56 93.89 7.72 89.32 16.75 89.31
  Q 47.25 89.25 76.84 88.98
  Z"
/>
<path fill="#faa515" d="
  M 414.57 88.99
  L 435.36 89.00
  L 430.87 120.00
  L 409.82 119.97
  L 414.57 88.99
  Z"
/>
<path fill="#fad207" d="
  M 435.36 89.00
  Q 464.84 89.00 494.02 89.00
  C 503.39 89.00 509.91 92.63 512.00 102.30
  L 512.00 112.30
  C 507.19 183.06 451.80 239.28 380.47 243.00
  Q 393.00 226.58 402.05 208.20
  C 443.01 196.25 473.19 162.88 479.63 120.50
  Q 479.71 120.01 479.21 120.01
  L 430.87 120.00
  L 435.36 89.00
  Z"
/>
<path fill="#fc4755" d="
  M 226.53 170.50
  Q 211.05 159.28 195.48 147.88
  C 192.32 145.57 190.33 142.95 192.82 139.33
  C 193.96 137.66 195.91 137.02 198.04 137.02
  Q 217.97 136.99 237.67 137.00
  Q 238.16 137.00 238.31 136.54
  Q 244.53 116.96 251.05 97.60
  C 252.69 92.74 259.82 93.80 261.25 98.25
  Q 267.41 117.37 273.67 136.47
  Q 273.83 136.96 274.36 136.97
  Q 294.64 137.08 314.73 136.98
  C 320.05 136.95 322.11 143.82 317.75 147.01
  Q 301.58 158.84 285.39 170.55
  A 0.90 0.89 -27.6 0 0 285.07 171.56
  Q 291.38 191.00 297.75 210.75
  C 299.16 215.12 292.69 218.57 289.07 215.92
  Q 272.79 204.02 256.43 192.22
  Q 256.01 191.92 255.59 192.22
  Q 240.29 203.36 225.01 214.38
  C 222.57 216.14 220.31 217.96 217.33 216.44
  C 212.74 214.09 214.41 210.12 215.88 205.56
  Q 221.40 188.44 226.90 171.64
  A 1.03 1.02 27.3 0 0 226.53 170.50
  Z"
/>
<path fill="#faa515" d="
  M 402.05 208.20
  Q 393.00 226.58 380.47 243.00
  L 353.32 243.17
  Q 366.92 228.67 376.84 211.92
  Q 389.34 211.16 402.05 208.20
  Z"
/>
<path fill="#fad207" d="
  M 223.90 301.14
  Q 236.27 302.79 240.07 303.16
  Q 261.60 305.24 287.03 301.44
  C 289.08 333.38 299.22 367.10 335.88 373.06
  Q 334.43 373.97 333.69 373.97
  Q 255.72 374.03 177.75 374.16
  Q 174.32 374.17 174.91 372.82
  C 210.91 366.84 222.02 332.85 223.90 301.14
  Z"
/>
<path fill="#faa515" d="
  M 174.91 372.82
  Q 174.32 374.17 177.75 374.16
  Q 255.72 374.03 333.69 373.97
  Q 334.43 373.97 335.88 373.06
  Q 347.22 373.84 358.86 373.97
  Q 365.55 374.05 368.98 375.29
  Q 378.88 378.88 382.35 389.54
  Q 268.18 389.42 154.25 389.56
  C 144.44 389.58 142.12 394.63 142.23 403.94
  Q 142.38 417.20 142.08 430.48
  L 126.51 430.45
  Q 126.50 416.88 126.50 403.59
  Q 126.50 392.43 128.07 388.10
  C 131.24 379.32 138.87 374.43 148.14 373.99
  C 157.09 373.56 165.65 374.25 174.91 372.82
  Z"
/>
<path fill="#fad207" d="
  M 382.35 389.54
  C 384.32 399.45 383.31 413.25 383.23 430.00
  L 382.78 430.29
  A 0.87 0.83 -61.1 0 1 382.30 430.44
  L 142.08 430.48
  Q 142.38 417.20 142.23 403.94
  C 142.12 394.63 144.44 389.58 154.25 389.56
  Q 268.18 389.42 382.35 389.54
  Z"
/>
<path fill="#50758d" d="
  M 383.23 430.00
  Q 383.23 430.12 383.26 430.29
  Q 383.30 430.49 383.51 430.49
  Q 398.76 430.50 413.99 430.50
  Q 426.24 430.50 430.66 432.09
  C 441.19 435.89 444.06 444.86 444.02 455.57
  Q 443.97 471.02 444.00 486.46
  Q 444.02 494.47 442.63 498.37
  Q 438.51 509.97 424.69 512.00
  L 103.26 512.00
  Q 93.52 507.10 90.10 498.67
  Q 88.70 495.23 88.64 488.63
  Q 88.36 459.66 88.53 430.41
  L 126.51 430.45
  L 142.08 430.48
  L 382.30 430.44
  A 0.87 0.83 -61.1 0 0 382.78 430.29
  L 383.23 430.00
  Z
  M 357.91 471.68
  A 7.66 7.66 0.0 0 0 350.25 464.02
  L 161.75 464.02
  A 7.66 7.66 0.0 0 0 154.09 471.68
  L 154.09 471.84
  A 7.66 7.66 0.0 0 0 161.75 479.50
  L 350.25 479.50
  A 7.66 7.66 0.0 0 0 357.91 471.84
  L 357.91 471.68
  Z"
/>
<path fill="#2b597f" d="
  M 88.53 430.41
  Q 88.36 459.66 88.64 488.63
  Q 88.70 495.23 90.10 498.67
  Q 93.52 507.10 103.26 512.00
  L 85.70 512.00
  C 73.58 509.51 68.00 501.29 67.99 489.52
  Q 67.99 470.71 68.02 451.96
  C 68.03 439.54 75.96 431.48 88.53 430.41
  Z"
/>
<rect fill="#2b597f" x="154.09" y="464.02" width="203.82" height="15.48" rx="7.66"/>
</svg>
