<svg id="Layer_1" enable-background="new 0 0 512 512" height="512" viewBox="0 0 512 512" width="512" xmlns="http://www.w3.org/2000/svg"><g><g><path d="m90.334 180.729c-53.2 19.608-90.334 64.043-90.334 115.732 0 38.032 20.102 72.143 51.916 95.325l.018-.034-18.565 43.223c-3.204 7.459 2.514 15.882 10.057 14.709 47.943-7.457 75.142-29.634 75.268-29.737 10.534 1.938 21.477 2.968 32.708 2.968 23.584 0 45.904-4.509 65.8-12.546z" fill="#ffcf4d"/><path d="m109.499 174.927c-6.584 1.58-12.981 3.529-19.164 5.808-8.101 18.974-12.526 39.405-12.526 60.702 0 77.154 57.901 143.002 139.385 168.916 7.193-2.906 14.079-6.259 20.583-10.041z" fill="#ffb629"/><path d="m440.712 366.586.025.047c-.025-.047 8.997-18.028 8.997-18.028 33.914-30.89 62.266-67.606 62.266-112.821 0-2.996-.091-5.974-.27-8.932-5.566-91.714-96.362-164.646-207.552-164.646-111.053 0-201.762 72.753-207.532 164.307-.193 3.07-.292 6.162-.292 9.272 0 95.865 111.651 162.299 207.823 164.307 15.414.322 30.437-1.414 44.897-4.074.171.14 37.507 30.582 103.317 40.818 10.354 1.611 12.214-14.621 12.214-14.621z" fill="#ff5876"/><g fill="#e6485d"><path d="m464.606 422.215c-2.729 3.79-7.172 6.134-12.214 5.35-57.699-8.975-93.509-33.481-101.576-39.48-1.14-.848-2.572-1.183-3.972-.939-13.772 2.402-28.04 3.674-42.666 3.674-111.053 0-201.757-72.753-207.527-164.307-.194 3.071-.296 6.161-.296 9.272 0 95.865 93.046 173.579 207.823 173.579 15.417 0 30.437-1.413 44.897-4.073.171.14 37.507 30.582 103.317 40.818 10.354 1.611 18.202-9.952 13.805-20.191z"/><path d="m442.821 346.549c-1.304.976-2.084 2.5-2.084 4.129v15.954c43.67-31.82 71.263-78.642 71.263-130.848 0-3.116-.103-6.212-.297-9.288-2.998 47.641-28.987 90.193-68.882 120.053z"/></g></g><g fill="#f2fdff"><path d="m373.955 291.127 7.356-26.4h37.996l7.356 26.4c3.119 9.793 17.298 5.755 14.886-4.147l-25.998-93.302c-1.929-6.924-8.055-11.575-15.242-11.575-7.188 0-13.313 4.651-15.243 11.576l-25.998 93.301c-2.404 9.951 11.807 13.903 14.887 4.147zm25.998-93.3c.042-.152.082-.212.081-.213.11-.076.443-.076.542-.008.001.001.043.057.089.22l14.335 51.447h-29.383z"/><path d="m245.26 216.773c0-19.142-15.573-34.716-34.715-34.716s-34.715 15.574-34.715 34.716v45.337c0 19.142 15.573 34.715 34.715 34.715 8.209 0 15.756-2.87 21.705-7.651l5.41 5.395c3.022 3.014 7.914 3.006 10.928-.015 3.013-3.022 3.006-7.914-.016-10.927l-6.665-6.647c2.147-4.51 3.353-9.551 3.353-14.87zm-21.539 42.073c-3.022-3.014-7.915-3.006-10.928.015-3.013 3.022-3.006 7.914.016 10.927l8.382 8.358c-3.053 2.033-6.712 3.224-10.647 3.224-10.621 0-19.261-8.641-19.261-19.261v-45.337c0-10.622 8.64-19.262 19.261-19.262s19.262 8.64 19.262 19.262v45.337c0 .886-.081 1.752-.198 2.606z"/><path d="m270.415 278.236c2 9.91 10.205 17.377 20.416 18.582 1.032.121 2.059.181 3.086.181 10.664 0 20.972-6.505 29.176-18.18l8.845 14.3c2.246 3.63 7.007 4.754 10.636 2.506 3.629-2.245 4.751-7.007 2.507-10.636l-13.464-21.767c3.869-8.125 8.542-17.387 8.596-17.494 1.923-3.809.394-8.456-3.415-10.38-3.808-1.921-8.456-.394-10.38 3.416-.142.282-2.05 4.064-4.428 8.895l-9.154-14.799c1.405-1.611 3.035-3.558 4.671-5.68 6.688-8.674 9.803-15.348 9.803-21.005 0-13.299-10.819-24.117-24.117-24.117s-24.117 10.819-24.117 24.117c0 5.656 3.115 12.331 9.803 21.005 1.242 1.611 2.478 3.116 3.617 4.455-9.151 9.542-25.542 29.449-22.081 46.601zm32.777-80.725c4.777 0 8.663 3.886 8.664 8.662-.035 2.309-3.747 8.23-8.664 14.209-4.917-5.979-8.629-11.899-8.664-14.207.001-4.777 3.887-8.664 8.664-8.664zm-1.415 46.847 12.234 19.779c-7.298 13.689-15.68 18.001-21.371 17.332-3.613-.426-6.391-2.896-7.076-6.29-1.673-8.292 7.915-21.674 16.213-30.821z"/></g></g></svg>