<?xml version="1.0" encoding="UTF-8" standalone="no"?>
<!DOCTYPE svg PUBLIC "-//W3C//DTD SVG 1.1//EN" "http://www.w3.org/Graphics/SVG/1.1/DTD/svg11.dtd">
<svg xmlns="http://www.w3.org/2000/svg" version="1.1" viewBox="0.00 0.00 512.00 512.00">
<g stroke-width="2.00" fill="none" stroke-linecap="butt">
<path stroke="#806640" vector-effect="non-scaling-stroke" d="
  M 407.96 215.72
  C 404.43 231.32 383.43 234.72 377.44 219.44
  Q 375.98 215.73 375.99 206.86
  Q 376.01 180.32 375.99 153.78
  Q 375.99 145.56 374.99 142.33
  C 369.98 126.01 350.28 125.74 345.22 142.26
  Q 344.26 145.39 344.26 153.36
  Q 344.26 169.70 344.23 186.03
  Q 344.21 194.10 343.14 197.22
  C 337.15 214.68 311.99 209.57 312.01 191.01
  Q 312.04 148.05 311.96 105.11
  Q 311.94 97.13 310.49 93.48
  C 302.89 74.34 280.83 82.39 280.32 100.64
  C 279.25 139.58 280.00 178.76 279.99 217.73
  Q 279.99 223.92 278.70 226.95
  C 271.99 242.73 248.02 237.18 248.01 220.44
  Q 248.00 150.30 247.99 80.16
  Q 247.98 74.44 247.10 71.58
  C 244.62 63.55 236.27 55.82 227.30 59.56
  C 219.26 62.91 216.03 71.49 216.03 80.00
  Q 216.00 160.06 216.00 240.13
  C 216.00 248.22 214.78 254.53 207.68 258.21
  C 195.86 264.33 184.00 255.39 184.00 242.75
  Q 184.01 174.30 183.98 105.85
  Q 183.98 97.80 182.85 94.41
  C 180.61 87.73 173.87 81.42 166.38 82.51
  C 156.75 83.91 152.03 94.01 152.02 103.01
  Q 151.98 201.50 152.01 300.00
  Q 152.01 306.62 150.64 309.82
  C 146.10 320.43 131.55 322.62 124.06 313.94
  Q 95.00 280.25 65.89 246.60
  C 49.90 228.11 32.66 249.07 38.67 266.42
  Q 39.79 269.63 43.89 274.90
  C 70.49 308.98 97.05 343.06 122.49 377.85
  Q 125.08 381.40 131.34 391.14
  C 150.65 421.17 179.63 442.71 214.63 450.76
  Q 220.09 452.01 222.50 453.66
  C 229.70 458.56 231.30 469.06 226.44 475.91
  Q 220.43 484.35 208.13 482.39"
/>
<path stroke="#806640" vector-effect="non-scaling-stroke" d="
  M 408.00 277.23
  Q 408.09 277.74 407.97 278.04
  A 0.28 0.28 0.0 0 1 407.46 278.06
  C 393.16 247.82 353.68 248.89 339.17 277.93
  Q 300.37 355.54 261.54 433.13
  Q 255.20 445.79 254.02 451.57
  Q 250.23 470.12 264.56 485.57"
/>
<path stroke="#806104" vector-effect="non-scaling-stroke" d="
  M 285.75 456.26
  A 5.35 5.35 0.0 0 0 290.53 464.00
  L 456.09 464.00
  A 5.35 5.35 0.0 0 0 460.87 456.26
  L 378.10 290.69
  A 5.35 5.35 0.0 0 0 368.52 290.69
  L 285.75 456.26"
/>
<path stroke="#806104" vector-effect="non-scaling-stroke" d="
  M 357.40 383.99
  C 357.52 401.71 381.65 406.03 387.93 390.80
  Q 389.50 386.98 389.51 376.97
  Q 389.51 361.31 389.48 345.67
  Q 389.47 339.02 388.43 336.08
  C 382.52 319.28 357.26 323.66 357.25 340.75
  Q 357.24 362.38 357.40 383.99"
/>
<path stroke="#806104" vector-effect="non-scaling-stroke" d="
  M 358.15 442.60
  C 361.09 451.04 370.22 455.49 378.65 452.50
  C 389.75 448.57 390.15 437.71 389.42 427.39
  C 388.01 407.54 362.75 404.52 357.84 422.68
  C 356.61 427.22 356.68 438.40 358.15 442.60"
/>
</g>
<path fill="#000000" d="
  M 407.96 215.72
  C 404.43 231.32 383.43 234.72 377.44 219.44
  Q 375.98 215.73 375.99 206.86
  Q 376.01 180.32 375.99 153.78
  Q 375.99 145.56 374.99 142.33
  C 369.98 126.01 350.28 125.74 345.22 142.26
  Q 344.26 145.39 344.26 153.36
  Q 344.26 169.70 344.23 186.03
  Q 344.21 194.10 343.14 197.22
  C 337.15 214.68 311.99 209.57 312.01 191.01
  Q 312.04 148.05 311.96 105.11
  Q 311.94 97.13 310.49 93.48
  C 302.89 74.34 280.83 82.39 280.32 100.64
  C 279.25 139.58 280.00 178.76 279.99 217.73
  Q 279.99 223.92 278.70 226.95
  C 271.99 242.73 248.02 237.18 248.01 220.44
  Q 248.00 150.30 247.99 80.16
  Q 247.98 74.44 247.10 71.58
  C 244.62 63.55 236.27 55.82 227.30 59.56
  C 219.26 62.91 216.03 71.49 216.03 80.00
  Q 216.00 160.06 216.00 240.13
  C 216.00 248.22 214.78 254.53 207.68 258.21
  C 195.86 264.33 184.00 255.39 184.00 242.75
  Q 184.01 174.30 183.98 105.85
  Q 183.98 97.80 182.85 94.41
  C 180.61 87.73 173.87 81.42 166.38 82.51
  C 156.75 83.91 152.03 94.01 152.02 103.01
  Q 151.98 201.50 152.01 300.00
  Q 152.01 306.62 150.64 309.82
  C 146.10 320.43 131.55 322.62 124.06 313.94
  Q 95.00 280.25 65.89 246.60
  C 49.90 228.11 32.66 249.07 38.67 266.42
  Q 39.79 269.63 43.89 274.90
  C 70.49 308.98 97.05 343.06 122.49 377.85
  Q 125.08 381.40 131.34 391.14
  C 150.65 421.17 179.63 442.71 214.63 450.76
  Q 220.09 452.01 222.50 453.66
  C 229.70 458.56 231.30 469.06 226.44 475.91
  Q 220.43 484.35 208.13 482.39
  C 168.52 473.73 134.55 450.53 110.60 417.91
  C 105.40 410.83 99.52 401.11 93.79 393.29
  C 68.85 359.27 42.67 325.83 16.61 292.40
  C -4.58 265.21 4.72 223.04 37.34 210.39
  C 55.69 203.27 75.74 209.01 88.64 223.87
  Q 104.16 241.74 119.57 259.71
  A 0.25 0.24 -65.2 0 0 120.00 259.55
  Q 120.01 184.46 120.00 109.26
  Q 119.99 95.52 121.46 89.37
  C 124.14 78.10 130.19 68.11 139.28 60.78
  Q 160.77 43.44 188.72 55.09
  Q 189.22 55.30 189.45 54.81
  C 207.18 17.38 257.43 17.36 274.90 55.15
  A 0.56 0.55 63.4 0 0 275.66 55.41
  C 296.69 44.74 320.99 51.82 334.19 70.58
  Q 343.18 83.35 343.99 100.05
  Q 344.01 100.61 344.55 100.44
  C 378.68 89.33 407.73 115.79 408.18 149.57
  Q 408.55 177.38 407.96 215.72
  Z"
/>
<path fill="#ffcc80" d="
  M 407.96 215.72
  L 408.00 277.23
  Q 408.09 277.74 407.97 278.04
  A 0.28 0.28 0.0 0 1 407.46 278.06
  C 393.16 247.82 353.68 248.89 339.17 277.93
  Q 300.37 355.54 261.54 433.13
  Q 255.20 445.79 254.02 451.57
  Q 250.23 470.12 264.56 485.57
  Q 263.25 484.23 262.56 484.31
  Q 235.26 487.74 208.13 482.39
  Q 220.43 484.35 226.44 475.91
  C 231.30 469.06 229.70 458.56 222.50 453.66
  Q 220.09 452.01 214.63 450.76
  C 179.63 442.71 150.65 421.17 131.34 391.14
  Q 125.08 381.40 122.49 377.85
  C 97.05 343.06 70.49 308.98 43.89 274.90
  Q 39.79 269.63 38.67 266.42
  C 32.66 249.07 49.90 228.11 65.89 246.60
  Q 95.00 280.25 124.06 313.94
  C 131.55 322.62 146.10 320.43 150.64 309.82
  Q 152.01 306.62 152.01 300.00
  Q 151.98 201.50 152.02 103.01
  C 152.03 94.01 156.75 83.91 166.38 82.51
  C 173.87 81.42 180.61 87.73 182.85 94.41
  Q 183.98 97.80 183.98 105.85
  Q 184.01 174.30 184.00 242.75
  C 184.00 255.39 195.86 264.33 207.68 258.21
  C 214.78 254.53 216.00 248.22 216.00 240.13
  Q 216.00 160.06 216.03 80.00
  C 216.03 71.49 219.26 62.91 227.30 59.56
  C 236.27 55.82 244.62 63.55 247.10 71.58
  Q 247.98 74.44 247.99 80.16
  Q 248.00 150.30 248.01 220.44
  C 248.02 237.18 271.99 242.73 278.70 226.95
  Q 279.99 223.92 279.99 217.73
  C 280.00 178.76 279.25 139.58 280.32 100.64
  C 280.83 82.39 302.89 74.34 310.49 93.48
  Q 311.94 97.13 311.96 105.11
  Q 312.04 148.05 312.01 191.01
  C 311.99 209.57 337.15 214.68 343.14 197.22
  Q 344.21 194.10 344.23 186.03
  Q 344.26 169.70 344.26 153.36
  Q 344.26 145.39 345.22 142.26
  C 350.28 125.74 369.98 126.01 374.99 142.33
  Q 375.99 145.56 375.99 153.78
  Q 376.01 180.32 375.99 206.86
  Q 375.98 215.73 377.44 219.44
  C 383.43 234.72 404.43 231.32 407.96 215.72
  Z"
/>
<path fill="#000000" d="
  M 408.00 277.23
  C 408.33 278.43 408.21 279.12 408.79 280.28
  Q 449.30 361.25 489.76 442.24
  C 500.11 462.96 488.54 488.98 466.09 494.95
  Q 461.29 496.23 449.69 496.23
  Q 334.35 496.30 290.75 496.23
  Q 275.25 496.21 264.56 485.57
  Q 250.23 470.12 254.02 451.57
  Q 255.20 445.79 261.54 433.13
  Q 300.37 355.54 339.17 277.93
  C 353.68 248.89 393.16 247.82 407.46 278.06
  A 0.28 0.28 0.0 0 0 407.97 278.04
  Q 408.09 277.74 408.00 277.23
  Z
  M 285.75 456.26
  A 5.35 5.35 0.0 0 0 290.53 464.00
  L 456.09 464.00
  A 5.35 5.35 0.0 0 0 460.87 456.26
  L 378.10 290.69
  A 5.35 5.35 0.0 0 0 368.52 290.69
  L 285.75 456.26
  Z"
/>
<path fill="#ffc107" d="
  M 285.75 456.26
  L 368.52 290.69
  A 5.35 5.35 0.0 0 1 378.10 290.69
  L 460.87 456.26
  A 5.35 5.35 0.0 0 1 456.09 464.00
  L 290.53 464.00
  A 5.35 5.35 0.0 0 1 285.75 456.26
  Z
  M 357.40 383.99
  C 357.52 401.71 381.65 406.03 387.93 390.80
  Q 389.50 386.98 389.51 376.97
  Q 389.51 361.31 389.48 345.67
  Q 389.47 339.02 388.43 336.08
  C 382.52 319.28 357.26 323.66 357.25 340.75
  Q 357.24 362.38 357.40 383.99
  Z
  M 358.15 442.60
  C 361.09 451.04 370.22 455.49 378.65 452.50
  C 389.75 448.57 390.15 437.71 389.42 427.39
  C 388.01 407.54 362.75 404.52 357.84 422.68
  C 356.61 427.22 356.68 438.40 358.15 442.60
  Z"
/>
<path fill="#000000" d="
  M 387.93 390.80
  C 381.65 406.03 357.52 401.71 357.40 383.99
  Q 357.24 362.38 357.25 340.75
  C 357.26 323.66 382.52 319.28 388.43 336.08
  Q 389.47 339.02 389.48 345.67
  Q 389.51 361.31 389.51 376.97
  Q 389.50 386.98 387.93 390.80
  Z"
/>
<path fill="#000000" d="
  M 378.65 452.50
  C 370.22 455.49 361.09 451.04 358.15 442.60
  C 356.68 438.40 356.61 427.22 357.84 422.68
  C 362.75 404.52 388.01 407.54 389.42 427.39
  C 390.15 437.71 389.75 448.57 378.65 452.50
  Z"
/>
</svg>
