<?xml version="1.0" encoding="utf-8"?>
<!-- Generator: Adobe Illustrator 24.1.1, SVG Export Plug-In . SVG Version: 6.00 Build 0)  -->
<svg version="1.1" id="Camada_1" xmlns="http://www.w3.org/2000/svg" xmlns:xlink="http://www.w3.org/1999/xlink" x="0px" y="0px"
	 viewBox="0 0 512 512" style="enable-background:new 0 0 512 512;" xml:space="preserve">
<style type="text/css">
	.st0{fill:url(#Page-1_1_);}
</style>
<linearGradient id="Page-1_1_" gradientUnits="userSpaceOnUse" x1="256" y1="511.9911" x2="256" y2="-9.094947e-13">
	<stop  offset="0" style="stop-color:#348EAC"/>
	<stop  offset="1" style="stop-color:#5DD39E"/>
</linearGradient>
<path id="Page-1" class="st0" d="M486.4,290.1c-14.1,0-25.6,11.5-25.6,25.6v25.6H184.7c1.9-4,3-8.4,3-12.8
	c0-16.5-13.4-29.9-29.9-29.9H98.1c-16.5,0-29.9,13.4-29.9,29.9c0,4.4,1,8.8,3,12.8H51.2v-93.9c0-14.1-11.5-25.6-25.6-25.6
	S0,233.3,0,247.5v238.9c0,12.5,8.9,23.1,21.2,25.2s24.3-4.9,28.4-16.7h412.7c4.1,11.7,16.1,18.8,28.4,16.7s21.2-12.8,21.2-25.2
	V315.7C512,301.6,500.5,290.1,486.4,290.1L486.4,290.1z M460.8,435.2H162.1c-4.7,0-8.5-3.8-8.5-8.5v-68.3h307.2V435.2z M85.3,328.5
	c0-7.1,5.7-12.8,12.8-12.8h59.7c7.1,0,12.8,5.7,12.8,12.8s-5.7,12.8-12.8,12.8H98.1C91.1,341.3,85.3,335.6,85.3,328.5z M25.6,494.9
	c-4.7,0-8.5-3.8-8.5-8.5V247.5c0-4.7,3.8-8.5,8.5-8.5s8.5,3.8,8.5,8.5v238.9C34.1,491.1,30.3,494.9,25.6,494.9z M51.2,358.4h85.3
	v68.3c0,14.1,11.5,25.6,25.6,25.6h298.7v25.6H51.2V358.4z M494.9,486.4c0,4.7-3.8,8.5-8.5,8.5s-8.5-3.8-8.5-8.5V315.7
	c0-4.7,3.8-8.5,8.5-8.5s8.5,3.8,8.5,8.5V486.4z M256,273.1c75.4,0,136.5-61.1,136.5-136.5S331.4,0,256,0S119.5,61.1,119.5,136.5
	C119.6,211.9,180.6,273,256,273.1z M256,17.1c66,0,119.5,53.5,119.5,119.5S322,256,256,256s-119.5-53.5-119.5-119.5
	C136.6,70.6,190,17.1,256,17.1z M196.3,170.7h25.6v25.6c0,9.4,7.6,17.1,17.1,17.1h34.1c9.4,0,17.1-7.6,17.1-17.1v-25.6h25.6
	c9.4,0,17.1-7.6,17.1-17.1v-34.1c0-9.4-7.6-17.1-17.1-17.1h-25.6V76.8c0-9.4-7.6-17.1-17.1-17.1h-34.1c-9.4,0-17.1,7.6-17.1,17.1
	v25.6h-25.6c-9.4,0-17.1,7.6-17.1,17.1v34.1C179.2,163,186.8,170.7,196.3,170.7z M196.3,119.5h25.6c9.4,0,17.1-7.6,17.1-17.1V76.8
	h34.1v25.6c0,9.4,7.6,17.1,17.1,17.1h25.6v34.1h-25.6c-9.4,0-17.1,7.6-17.1,17.1v25.6h-34.1v-25.6c0-9.4-7.6-17.1-17.1-17.1h-25.6
	V119.5z M179.2,392.5h187.7c4.7,0,8.5-3.8,8.5-8.5s-3.8-8.5-8.5-8.5H179.2c-4.7,0-8.5,3.8-8.5,8.5S174.5,392.5,179.2,392.5z
	 M401.1,375.5c4.7,0,8.5,3.8,8.5,8.5s-3.8,8.5-8.5,8.5s-8.5-3.8-8.5-8.5S396.4,375.5,401.1,375.5z"/>
</svg>
