<?xml version="1.0" encoding="utf-8"?>
<!-- Generator: Adobe Illustrator 24.1.1, SVG Export Plug-In . SVG Version: 6.00 Build 0)  -->
<svg version="1.1" id="Camada_1" xmlns="http://www.w3.org/2000/svg" xmlns:xlink="http://www.w3.org/1999/xlink" x="0px" y="0px"
	 viewBox="0 0 512 512" style="enable-background:new 0 0 512 512;" xml:space="preserve">
<style type="text/css">
	.st0{fill:url(#Page-1_1_);}
</style>
<linearGradient id="Page-1_1_" gradientUnits="userSpaceOnUse" x1="255.9348" y1="512.1465" x2="255.9348" y2="-9.094947e-13">
	<stop  offset="0" style="stop-color:#348EAC"/>
	<stop  offset="1" style="stop-color:#5DD39E"/>
</linearGradient>
<path id="Page-1" class="st0" d="M171.2,195.7c13.3-13.3,13.3-35,0-48.3l-60.5-60.4c-6.4-6.5-15.1-10.1-24.2-10.1
	s-17.8,3.6-24.2,10.1L8,141.3c-0.7,0.7-1.3,1.5-1.7,2.4c-1.8,3.9-43.1,97.9,110.6,251.5c98.6,98.6,172.6,116.9,214,116.9
	c12.8,0.5,25.6-1.7,37.5-6.4c0.9-0.4,1.7-1,2.4-1.7l54.4-54.3c6.4-6.4,10.1-15.1,10.1-24.2c0-9.1-3.6-17.8-10.1-24.2l-60.5-60.5
	c-13.4-13.3-35-13.3-48.3,0l-39.7,39.8c-2.7,2.7-6.7,3.3-10.1,1.6c-28.7-15.7-54.7-35.8-77.2-59.6c-23.7-22.5-43.8-48.5-59.5-77.1
	c-1.7-3.3-1-7.4,1.6-10.1L171.2,195.7z M114.6,253.2c16.5,30.3,37.7,57.8,62.7,81.6c23.8,25,51.3,46.2,81.6,62.7
	c9.9,4.9,21.9,3,29.8-4.8l39.8-39.9c6.7-6.7,17.5-6.7,24.2,0l60.5,60.6c3.2,3.2,5,7.5,5,12.1c0,4.5-1.8,8.9-5,12.1l-53.2,53.1
	c-11.1,3.9-96.1,27.4-231-107.6C-6.3,248,17.5,162.9,21.3,152.1l53.2-53.2c6.7-6.5,17.4-6.5,24.2,0l60.6,60.5
	c6.7,6.7,6.7,17.5,0,24.2l-39.9,39.8C111.5,231.3,109.6,243.2,114.6,253.2L114.6,253.2z M76.5,278.6c-1.9,1.2-3.2,3.2-3.7,5.4
	s0,4.5,1.2,6.4c19.5,29.1,42,56.1,67,80.6c24.5,25,51.5,47.5,80.6,67c2.6,1.8,5.9,2,8.6,0.6c2.8-1.4,4.6-4.2,4.7-7.3
	c0.1-3.1-1.4-6-4.1-7.7c-28.1-18.9-54.2-40.6-77.9-64.8c-24.2-23.7-45.9-49.8-64.8-77.9c-1.2-1.9-3.2-3.2-5.4-3.7
	S78.4,277.3,76.5,278.6z M477.9,0H273.1c-18.9,0-34.1,15.3-34.1,34.1v153.6c0,18.9,15.3,34.1,34.1,34.1h38l48.7,76.7
	c3.4,5.4,9.3,8.6,15.7,8.6s12.3-3.3,15.7-8.6l48.7-76.7h38c18.9,0,34.1-15.3,34.1-34.1V34.1C512,15.3,496.7,0,477.9,0z M494.9,187.7
	c0,9.4-7.6,17.1-17.1,17.1h-85.3c-4.7,0-8.5,3.8-8.5,8.5s3.8,8.5,8.5,8.5h27.1l-42.9,67.5c-0.3,0.4-0.8,0.7-1.3,0.7s-1-0.3-1.3-0.7
	l-42.9-67.5h27.1c4.7,0,8.5-3.8,8.5-8.5s-3.8-8.5-8.5-8.5h-85.3c-9.4,0-17.1-7.6-17.1-17.1V34.1c0-9.4,7.6-17.1,17.1-17.1h204.8
	c9.4,0,17.1,7.6,17.1,17.1V187.7z M426.7,76.8h-17.1V59.7c0-9.4-7.6-17.1-17.1-17.1h-34.1c-9.4,0-17.1,7.6-17.1,17.1v17.1h-17.1
	c-9.4,0-17.1,7.6-17.1,17.1V128c0,9.4,7.6,17.1,17.1,17.1h17.1v17.1c0,9.4,7.6,17.1,17.1,17.1h34.1c9.4,0,17.1-7.6,17.1-17.1v-17.1
	h17.1c9.4,0,17.1-7.6,17.1-17.1V93.9C443.7,84.4,436.1,76.8,426.7,76.8z M426.7,128h-17.1c-9.4,0-17.1,7.6-17.1,17.1v17.1h-34.1
	v-17.1c0-9.4-7.6-17.1-17.1-17.1h-17.1V93.9h17.1c9.4,0,17.1-7.6,17.1-17.1V59.7h34.1v17.1c0,9.4,7.6,17.1,17.1,17.1h17.1V128z"/>
</svg>
