<?xml version="1.0" encoding="utf-8"?>
<!-- Generator: Adobe Illustrator 24.1.1, SVG Export Plug-In . SVG Version: 6.00 Build 0)  -->
<svg version="1.1" id="Camada_1" xmlns="http://www.w3.org/2000/svg" xmlns:xlink="http://www.w3.org/1999/xlink" x="0px" y="0px"
	 viewBox="0 0 512 512" style="enable-background:new 0 0 512 512;" xml:space="preserve">
<style type="text/css">
	.st0{fill:url(#Page-1_1_);}
</style>
<linearGradient id="Page-1_1_" gradientUnits="userSpaceOnUse" x1="256" y1="512" x2="256" y2="4.648972e-02">
	<stop  offset="0" style="stop-color:#348EAC"/>
	<stop  offset="1" style="stop-color:#5DD39E"/>
</linearGradient>
<path id="Page-1" class="st0" d="M494.9,460.8h-25.6V162.4l29.3,20.2c3.9,2.6,9.1,1.6,11.7-2.3s1.7-9.1-2.1-11.8l-90.2-62.2V34.1
	c0-9.4-7.6-17.1-17.1-17.1h-51.2c-9.4,0-17.1,7.6-17.1,17.1v13.3L270.5,4.5c-8.8-6-20.3-6-29,0L3.7,168.5c-3.8,2.7-4.7,7.9-2.1,11.8
	s7.9,4.8,11.7,2.3l29.3-20.2v298.4H17.1c-9.4,0-17.1,7.6-17.1,17.1v17.1c0,9.4,7.6,17.1,17.1,17.1h477.9c9.4,0,17.1-7.6,17.1-17.1
	v-17.1C512,468.4,504.4,460.8,494.9,460.8L494.9,460.8z M349.9,34.1h51.2v60.4l-51.2-35.3V34.1z M59.7,150.6l191.4-132
	c2.9-2,6.8-2,9.7,0l191.4,132v310.2h-81.3l-32.2-38.6c6.9-4.8,11.1-12.7,11.1-21.1v-8.5h51.2c14.1,0,25.6-11.5,25.6-25.6V179.2
	c0-14.1-11.5-25.6-25.6-25.6H264.5V128c0-4.7-3.8-8.5-8.5-8.5c-4.7,0-8.5,3.8-8.5,8.5v25.6H110.9c-14.1,0-25.6,11.5-25.6,25.6v187.7
	c0,14.1,11.5,25.6,25.6,25.6h51.2v8.5c0,8.4,4.1,16.3,11.1,21.1l-32.2,38.6H59.7L59.7,150.6z M163.3,460.8l28.5-34.1h55.7v34.1
	H163.3z M110.9,375.5c-4.7,0-8.5-3.8-8.5-8.5V179.2c0-4.7,3.8-8.5,8.5-8.5h290.1c4.7,0,8.5,3.8,8.5,8.5v187.7c0,4.7-3.8,8.5-8.5,8.5
	H196.3v-8.5c0-14.1-11.5-25.6-25.6-25.6h-17.1c-14.1,0-25.6,11.5-25.6,25.6v8.5H110.9z M145.1,366.9c0-4.7,3.8-8.5,8.5-8.5h17.1
	c4.7,0,8.5,3.8,8.5,8.5v8.5h-34.1V366.9z M179.2,392.5h153.6v8.5c0,4.7-3.8,8.5-8.5,8.5H187.7c-4.7,0-8.5-3.8-8.5-8.5V392.5z
	 M264.5,426.7h55.7l28.5,34.1h-84.2L264.5,426.7z M17.1,494.9v-17.1h477.9v17.1H17.1z M136.5,315.7c4.7,0,8.5-3.8,8.5-8.5v-68.3
	c0-4.7-3.8-8.5-8.5-8.5s-8.5,3.8-8.5,8.5v68.3C128,311.9,131.8,315.7,136.5,315.7z M238.9,315.7c4.7,0,8.5-3.8,8.5-8.5v-68.3
	c0-4.7-3.8-8.5-8.5-8.5c-4.7,0-8.5,3.8-8.5,8.5v68.3C230.4,311.9,234.2,315.7,238.9,315.7z M170.7,281.6h8.5v8.5
	c0,4.7,3.8,8.5,8.5,8.5c4.7,0,8.5-3.8,8.5-8.5v-8.5h8.5c4.7,0,8.5-3.8,8.5-8.5s-3.8-8.5-8.5-8.5h-8.5V256c0-4.7-3.8-8.5-8.5-8.5
	c-4.7,0-8.5,3.8-8.5,8.5v8.5h-8.5c-4.7,0-8.5,3.8-8.5,8.5S166,281.6,170.7,281.6z M273.1,298.7h25.6c4.7,0,8.5-3.8,8.5-8.5
	c0-4.7-3.8-8.5-8.5-8.5h-25.6c-4.7,0-8.5,3.8-8.5,8.5C264.5,294.8,268.4,298.7,273.1,298.7z M273.1,264.5h25.6
	c4.7,0,8.5-3.8,8.5-8.5c0-4.7-3.8-8.5-8.5-8.5h-25.6c-4.7,0-8.5,3.8-8.5,8.5C264.5,260.7,268.4,264.5,273.1,264.5z M332.8,264.5
	c4.7,0,8.5-3.8,8.5-8.5c0-4.7,3.8-8.5,8.5-8.5c2.3,0,4.5,0.9,6.1,2.5c1.6,1.6,2.5,3.8,2.5,6.1c0,17.4-22.2,37.9-30.7,44.4
	c-2.9,2.2-4.1,6-3,9.5c1.2,3.5,4.4,5.8,8.1,5.8h42.7c4.7,0,8.5-3.8,8.5-8.5s-3.8-8.5-8.5-8.5h-20.7c10-10.9,20.7-26.3,20.7-42.7
	c0-14.1-11.5-25.6-25.6-25.6c-14.1,0-25.6,11.5-25.6,25.6C324.3,260.7,328.1,264.5,332.8,264.5L332.8,264.5z"/>
</svg>
