<?xml version="1.0" encoding="utf-8"?>
<!-- Generator: Adobe Illustrator 24.1.1, SVG Export Plug-In . SVG Version: 6.00 Build 0)  -->
<svg version="1.1" id="Camada_1" xmlns="http://www.w3.org/2000/svg" xmlns:xlink="http://www.w3.org/1999/xlink" x="0px" y="0px"
	 viewBox="0 0 512 512" style="enable-background:new 0 0 512 512;" xml:space="preserve">
<style type="text/css">
	.st0{fill:url(#Page-1_1_);}
</style>
<linearGradient id="Page-1_1_" gradientUnits="userSpaceOnUse" x1="256.0073" y1="512.0168" x2="256.0073" y2="-0.1047">
	<stop  offset="0" style="stop-color:#348EAC"/>
	<stop  offset="1" style="stop-color:#5DD39E"/>
</linearGradient>
<path id="Page-1" class="st0" d="M213.3,68.3h8.5v8.5c0,4.7,3.8,8.5,8.5,8.5s8.5-3.8,8.5-8.5v-8.5h8.5c4.7,0,8.5-3.8,8.5-8.5
	s-3.8-8.5-8.5-8.5h-8.5v-8.5c0-4.7-3.8-8.5-8.5-8.5s-8.5,3.8-8.5,8.5v8.5h-8.5c-4.7,0-8.5,3.8-8.5,8.5
	C204.8,64.4,208.6,68.3,213.3,68.3z M170.7,221.9h119.5c9.4,0,17.1-7.6,17.1-17.1v-17.1c0-9.4-7.6-17.1-17.1-17.1H170.7
	c-9.4,0-17.1,7.6-17.1,17.1v17.1C153.6,214.2,161.2,221.9,170.7,221.9z M213.3,204.8v-17.1h34.1v17.1H213.3z M290.1,204.8h-25.6
	v-17.1h25.6V204.8z M170.7,187.7h25.6v17.1h-25.6V187.7z M170.7,290.1h119.5c9.4,0,17.1-7.6,17.1-17.1V256c0-9.4-7.6-17.1-17.1-17.1
	H170.7c-9.4,0-17.1,7.6-17.1,17.1v17.1C153.6,282.5,161.2,290.1,170.7,290.1z M213.3,273.1V256h34.1v17.1H213.3z M290.1,273.1h-25.6
	V256h25.6V273.1z M170.7,256h25.6v17.1h-25.6V256z M85.3,238.9H68.3c-9.4,0-17.1,7.6-17.1,17.1v17.1c0,9.4,7.6,17.1,17.1,17.1h17.1
	c9.4,0,17.1-7.6,17.1-17.1V256C102.4,246.6,94.8,238.9,85.3,238.9z M68.3,273.1V256h17.1v17.1H68.3z M85.3,307.2H68.3
	c-9.4,0-17.1,7.6-17.1,17.1v17.1c0,9.4,7.6,17.1,17.1,17.1h17.1c9.4,0,17.1-7.6,17.1-17.1v-17.1C102.4,314.8,94.8,307.2,85.3,307.2z
	 M68.3,341.3v-17.1h17.1v17.1H68.3z M170.7,358.4h119.5c9.4,0,17.1-7.6,17.1-17.1v-17.1c0-9.4-7.6-17.1-17.1-17.1H170.7
	c-9.4,0-17.1,7.6-17.1,17.1v17.1C153.6,350.8,161.2,358.4,170.7,358.4z M213.3,341.3v-17.1h34.1v17.1H213.3z M290.1,341.3h-25.6
	v-17.1h25.6V341.3z M170.7,324.3h25.6v17.1h-25.6V324.3z M375.5,290.1h17.1c9.4,0,17.1-7.6,17.1-17.1V256c0-9.4-7.6-17.1-17.1-17.1
	h-17.1c-9.4,0-17.1,7.6-17.1,17.1v17.1C358.4,282.5,366,290.1,375.5,290.1z M375.5,256h17.1v17.1h-17.1V256z M443.7,313.2v-82.8
	c0-14.1-11.5-25.6-25.6-25.6h-76.8v-51.2c9.4,0,17.1-7.6,17.1-17.1v-25.6c0-9.4-7.6-17.1-17.1-17.1h-62
	c17.4-24.8,13.4-58.7-9.2-78.9s-56.8-20.1-79.4,0s-26.6,54-9.2,78.9h-62c-9.4,0-17.1,7.6-17.1,17.1v25.6c0,9.4,7.6,17.1,17.1,17.1
	v51.2H42.7c-14.1,0-25.6,11.5-25.6,25.6v145.1c-9.4,0-17.1,7.6-17.1,17.1v17.1c0,9.4,7.6,17.1,17.1,17.1h291.7
	c8.3,49.2,50.8,85.3,100.7,85.3c49.9,0.1,92.6-35.8,101.1-85C519,377.9,490.8,329.8,443.7,313.2L443.7,313.2z M418.1,221.9
	c4.7,0,8.5,3.8,8.5,8.5v78.3c-30.7-5.5-62.3,3.7-85.3,24.7V221.9H418.1z M230.4,17.1c23.6,0,42.7,19.1,42.7,42.7
	s-19.1,42.7-42.7,42.7s-42.7-19.1-42.7-42.7C187.8,36.2,206.8,17.1,230.4,17.1z M119.5,110.9h80.3c18.8,11.4,42.4,11.4,61.2,0h80.3
	v25.6H119.5V110.9z M324.3,153.6v199.5c-4.6,7-8.3,14.5-11.1,22.3H136.5V153.6H324.3z M34.1,230.4c0-4.7,3.8-8.5,8.5-8.5h76.8v153.6
	H34.1V230.4z M17.1,409.6v-17.1h291.7c-1,5.6-1.5,11.3-1.5,17.1H17.1z M409.6,494.9c-47.1,0-85.3-38.2-85.3-85.3
	s38.2-85.3,85.3-85.3s85.3,38.2,85.3,85.3C494.9,456.7,456.7,494.9,409.6,494.9z M409.6,341.3c-37.7,0-68.2,30.6-68.3,68.3
	c0,4.7,3.8,8.5,8.5,8.5c4.7,0,8.5-3.8,8.5-8.5c0-23.9,16.5-44.6,39.9-49.9c23.3-5.3,47.2,6.3,57.5,27.9l-25.3,7.2
	c-7.2-10.2-20.7-13.7-31.9-8.3c-11.2,5.4-17,18.1-13.6,30.1s14.9,19.8,27.3,18.5c12.4-1.3,22-11.4,22.8-23.8l25.4-7.3
	c0.2,1.9,0.3,3.8,0.3,5.7c0,4.7,3.8,8.5,8.5,8.5c4.7,0,8.5-3.8,8.5-8.5c0-4.3-0.4-8.5-1.2-12.7c1.2-2,1.6-4.4,0.9-6.7
	c-0.6-2.3-2.2-4.1-4.3-5.2C463.1,358.7,437.8,341.4,409.6,341.3L409.6,341.3z M409.6,418.1c-4.7,0-8.5-3.8-8.5-8.5
	c0-4.7,3.8-8.5,8.5-8.5c4.7,0,8.5,3.8,8.5,8.5C418.1,414.3,414.3,418.1,409.6,418.1z M392.5,452.3H384c-4.7,0-8.5,3.8-8.5,8.5
	s3.8,8.5,8.5,8.5h8.5c4.7,0,8.5-3.8,8.5-8.5S397.2,452.3,392.5,452.3z M435.2,452.3h-8.5c-4.7,0-8.5,3.8-8.5,8.5s3.8,8.5,8.5,8.5
	h8.5c4.7,0,8.5-3.8,8.5-8.5S439.9,452.3,435.2,452.3z"/>
</svg>
