<?xml version="1.0" encoding="utf-8"?>
<!-- Generator: Adobe Illustrator 24.1.1, SVG Export Plug-In . SVG Version: 6.00 Build 0)  -->
<svg version="1.1" id="Camada_1" xmlns="http://www.w3.org/2000/svg" xmlns:xlink="http://www.w3.org/1999/xlink" x="0px" y="0px"
	 viewBox="0 0 512 512" style="enable-background:new 0 0 512 512;" xml:space="preserve">
<style type="text/css">
	.st0{fill:url(#Page-1_1_);}
</style>
<linearGradient id="Page-1_1_" gradientUnits="userSpaceOnUse" x1="256" y1="512" x2="256" y2="-9.094947e-13">
	<stop  offset="0" style="stop-color:#348EAC"/>
	<stop  offset="1" style="stop-color:#5DD39E"/>
</linearGradient>
<path id="Page-1" class="st0" d="M256,0C114.6,0,0,114.6,0,256s114.6,256,256,256s256-114.6,256-256C511.8,114.7,397.3,0.2,256,0z
	 M256,494.9C124,494.9,17.1,388,17.1,256S124,17.1,256,17.1S494.9,124,494.9,256C494.8,387.9,387.9,494.8,256,494.9z M405.6,118.4
	L248.4,275.6L246,278L118.4,405.6c-3.5,3.5-5.3,8.3-5,13.2c0.3,4.8,2.6,9.3,6.4,12.3c38.9,30.4,87,46.9,136.4,46.9
	c6.1,0,12.2-0.3,18.3-0.8c81.1-6.7,152.1-57.4,184.7-132S481.1,184,431,119.8c-3-3.8-7.4-6.1-12.2-6.4
	C413.9,113.1,409.1,114.9,405.6,118.4L405.6,118.4z M406.4,230.4h-5.4c-4.7,0-8.5,3.8-8.5,8.5c0,4.7,3.8,8.5,8.5,8.5h17.1
	c4.7,0,8.5,3.8,8.5,8.5c0,2.3-0.9,4.5-2.6,6.1c-1.6,1.6-3.7,2.5-5.9,2.5h-17.1c-4.7,0-8.5,3.8-8.5,8.5s3.8,8.5,8.5,8.5h5.4l8.7,20.4
	l-11.8,3.9L373,275.6c-1.6-1.6-3.8-2.5-6-2.5h-92l34.1-34.1h57.9c2.3,0,4.4-0.9,6-2.5l30.4-30.4l11.8,3.9L406.4,230.4z M249.1,299
	l29.8,71.6l-19.7,4.9L220,328L249.1,299z M460.1,273.1c-6.2,74.9-53,140.3-121.8,170.5c-68.8,30.2-148.6,20.2-207.9-25.9l77.4-77.5
	l38.1,46.2c4.2,5,10.9,7.2,17.3,5.6l19.8-5c4.7-1.2,8.6-4.3,10.9-8.6c2.3-4.4,2.6-9.6,0.9-14.3l-30.9-74h99.5l27.9,27.9
	c4.5,4.6,11.3,6.2,17.4,4.1l11.8-3.9c4.5-1.5,8.2-4.8,10.2-9.2c2-4.4,2-9.3,0.1-13.7l-6.2-14.5c4.4-1.1,8.3-3.4,11.5-6.6
	c4.9-4.8,7.7-11.3,7.6-18.2c0-11.6-7.8-21.8-19.1-24.7l6.2-14.6c1.9-4.4,1.8-9.3-0.1-13.7c-1.9-4.3-5.6-7.7-10.1-9.2l-11.8-3.9
	c-6.1-2.1-12.9-0.5-17.5,4.1l-27.9,27.9h-37.3l91.5-91.5C449.2,170.9,464.4,221.9,460.1,273.1L460.1,273.1z M398.6,93.2
	c-0.3-4.8-2.6-9.3-6.4-12.2c-88.3-68.8-214-61-293.1,18.1S12.2,303.9,81,392.2c3,3.8,7.4,6.1,12.2,6.4h1.1c4.6,0,8.9-1.8,12.1-5
	l287.2-287.1C397.1,102.9,398.9,98.1,398.6,93.2L398.6,93.2z M177.2,276.2c-1.6-2-4-3.1-6.6-3.1h-59.7c-9.4,0-17.1-7.6-17.1-17.1
	c0-9.4,7.6-17.1,17.1-17.1h59.7c2.5,0,5-1.1,6.6-3.1l81.9-99.3l19.8,5l-34.4,89.9l-57.1,57.1L177.2,276.2z M274.1,201.8l20.8-54.3
	c1.6-4.6,1.3-9.6-1-13.9c-2.3-4.3-6.2-7.4-10.9-8.6l-19.8-5c-6.4-1.5-13,0.7-17.2,5.7l-79.4,96.2h-55.7c-18.9,0-34.1,15.3-34.1,34.1
	s15.3,34.1,34.1,34.1h55.7l8.6,10.5l-80.9,80.9l6,6l-6-5.9c-46.2-59.3-56.2-139.1-26.1-207.9S164,58.1,238.9,51.9
	c5.7-0.5,11.3-0.7,16.9-0.7c45.6-0.1,89.8,15.1,125.7,43.1L274.1,201.8z"/>
</svg>
