<?xml version="1.0" encoding="utf-8"?>
<!-- Generator: Adobe Illustrator 24.1.1, SVG Export Plug-In . SVG Version: 6.00 Build 0)  -->
<svg version="1.1" id="Camada_1" xmlns="http://www.w3.org/2000/svg" xmlns:xlink="http://www.w3.org/1999/xlink" x="0px" y="0px"
	 viewBox="0 0 512 512" style="enable-background:new 0 0 512 512;" xml:space="preserve">
<style type="text/css">
	.st0{fill:url(#Page-1_1_);}
</style>
<linearGradient id="Page-1_1_" gradientUnits="userSpaceOnUse" x1="255.9705" y1="511.9964" x2="255.9705" y2="5.287171e-03">
	<stop  offset="0" style="stop-color:#348EAC"/>
	<stop  offset="1" style="stop-color:#5DD39E"/>
</linearGradient>
<path id="Page-1" class="st0" d="M302.5,269.3c15.9,0,31.1-6.3,42.2-17.5l60.3-60.3c15.1-15.1,21-37.1,15.5-57.7
	c-5.5-20.6-21.6-36.7-42.2-42.2s-42.6,0.4-57.7,15.5l-60.3,60.3c-17.1,17.1-22.2,42.8-13,65.1S278.3,269.3,302.5,269.3L302.5,269.3z
	 M393,119c14.3,14.3,16.6,36.8,5.4,53.7l-59.1-59.1C356.2,102.4,378.6,104.7,393,119L393,119z M272.3,179.4l54.3-54.3l60.3,60.3
	l-54.3,54.3c-10.8,10.8-26.5,15-41.2,11s-26.2-15.4-30.2-30.2C257.3,205.9,261.5,190.2,272.3,179.4z M316.2,174.6l30.2,18.1
	c4,2.4,9.3,1.1,11.7-2.9s1.1-9.3-2.9-11.7L325,160c-4-2.4-9.3-1.1-11.7,2.9S312.1,172.2,316.2,174.6z M286,204.8l30.2,18.1
	c4,2.4,9.3,1.1,11.7-2.9s1.1-9.3-2.9-11.7l-30.2-18.1c-2.6-1.7-5.9-1.8-8.7-0.3c-2.7,1.5-4.4,4.3-4.5,7.4
	C281.6,200.4,283.3,203.3,286,204.8L286,204.8z M17.1,507c6.7,6.7,17.5,6.7,24.1,0L69,479.2c0.1-0.1,0.2-0.1,0.3-0.2
	s0.1-0.2,0.2-0.3l64-64c11.6-11.7,26.1-20.1,42-24.3c39.6-10.3,114.7-36.5,174.2-95.5c0.3-0.3,0.6-0.5,0.9-0.9l138.6-138.6
	c0.1-0.1,0.1-0.1,0.2-0.1c29.9-30.1,29.9-78.6,0-108.7l-24.2-24.2c-30-29.9-78.6-29.9-108.6,0c-0.1,0.1-0.1,0.2-0.2,0.2L218.1,161.2
	c0,0-0.1,0-0.1,0.1c-59.6,59.6-85.9,135.3-96.3,175.1c-4.2,15.9-12.6,30.4-24.3,42L5,470.8c-6.7,6.7-6.7,17.5,0,24.1L17.1,507z
	 M230.1,173.3L362.8,40.6l108.6,108.6L338.8,281.9c0,0-0.1,0.1-0.1,0.1c-0.3,0.3-0.6,0.6-0.9,0.9c-30.5,28.2-77.8,27.2-107-2.5
	S201.3,203.3,230.1,173.3L230.1,173.3z M453.3,34.5l24.1,24.1c20.9,21.1,23.3,54.2,5.6,78.1L375.3,28.9
	C399.1,11.2,432.3,13.6,453.3,34.5z M109.4,390.5c13.8-13.7,23.7-30.9,28.7-49.8c11-42.3,28.8-82.5,52.7-119.1
	c-1.8,25.9,7.3,51.3,25.1,70.3s42.5,29.7,68.5,29.6c2,0,4-0.2,6-0.3c-36.6,23.9-76.8,41.6-119,52.6c-18.8,5-36,14.9-49.8,28.7
	l-58.2,58.3l-12.1-12.1L109.4,390.5z M39.1,460.8l12.1,12.1l-22.1,22.1l-12.1-12.1L39.1,460.8z M196.3,307.2c4.7,0,8.5,3.8,8.5,8.5
	c0,4.7-3.8,8.5-8.5,8.5s-8.5-3.8-8.5-8.5C187.7,311,191.6,307.2,196.3,307.2z"/>
</svg>
