<?xml version="1.0" encoding="utf-8"?>
<!-- Generator: Adobe Illustrator 24.1.1, SVG Export Plug-In . SVG Version: 6.00 Build 0)  -->
<svg version="1.1" id="Camada_1" xmlns="http://www.w3.org/2000/svg" xmlns:xlink="http://www.w3.org/1999/xlink" x="0px" y="0px"
	 viewBox="0 0 512 512" style="enable-background:new 0 0 512 512;" xml:space="preserve">
<style type="text/css">
	.st0{fill:url(#Page-1_1_);}
</style>
<linearGradient id="Page-1_1_" gradientUnits="userSpaceOnUse" x1="259.8576" y1="512" x2="259.8576" y2="7.7026">
	<stop  offset="0" style="stop-color:#348EAC"/>
	<stop  offset="1" style="stop-color:#5DD39E"/>
</linearGradient>
<path id="Page-1" class="st0" d="M411.3,209.8c0.2-93.9-64.5-175.5-156-196.9S69.7,36.3,28.3,120.7S9.3,306.7,82.1,366
	s177,60.5,251.2,2.8l29,28.9c-2.6,6.1-1.4,13.2,3.1,18.1l76.9,87.2c4.9,5.4,11.7,8.7,19,8.9h0.8c7,0,13.6-2.8,18.6-7.7l23.7-23.7
	c5.1-5.1,7.9-12.1,7.7-19.3c-0.2-7.3-3.4-14.2-8.9-19.1L416,365.4c-5-4.5-12-5.7-18.2-3.1l-29-28.9
	C396.4,298,411.3,254.6,411.3,209.8z M25.2,209.8c0-102,82.7-184.7,184.7-184.7s184.7,82.7,184.7,184.7s-82.7,184.7-184.7,184.7
	C107.9,394.4,25.3,311.8,25.2,209.8z M492,454.7c2,1.8,3.2,4.3,3.3,7c0.1,2.6-0.9,5.1-2.8,7l-23.7,23.7c-1.8,1.9-4.4,2.9-7,2.8
	c-2.7-0.1-5.2-1.2-6.9-3.2l-76.9-87.9l26.9-26.2L492,454.7z M385,373.2L373.2,385l-27-27c4.1-3.8,8-7.7,11.8-11.8L385,373.2z
	 M209.8,42C117.1,42,42,117.1,42,209.8s75.2,167.9,167.9,167.9s167.9-75.2,167.9-167.9C377.6,117.2,302.5,42.1,209.8,42z
	 M209.8,360.9c-83.4,0-151.1-67.6-151.1-151.1S126.4,58.8,209.8,58.8s151.1,67.6,151.1,151.1C360.8,293.2,293.2,360.8,209.8,360.9z
	 M209.8,92.3c4.6,0,8.4-3.8,8.4-8.4s-3.8-8.4-8.4-8.4c-74.1,0.1-134.2,60.2-134.3,134.3c0,4.6,3.8,8.4,8.4,8.4s8.4-3.8,8.4-8.4
	C92.4,145,145,92.4,209.8,92.3z M163.7,134.3c-16.2,0-29.4,13.2-29.4,29.4s13.2,29.4,29.4,29.4s29.4-13.2,29.4-29.4
	S179.9,134.3,163.7,134.3z M163.7,176.3c-7,0-12.6-5.6-12.6-12.6c0-7,5.6-12.6,12.6-12.6c7,0,12.6,5.6,12.6,12.6
	C176.3,170.6,170.6,176.3,163.7,176.3z M310.6,235h-9.1c-0.5-3.1-1.3-6.2-2.5-9.1l7.9-4.6c4-2.3,5.3-7.4,3-11.4
	c-2.3-4-7.4-5.4-11.4-3.1l-7.9,4.6c-2-2.4-4.3-4.7-6.7-6.7l4.6-7.9c1.5-2.6,1.5-5.8,0-8.4c-1.5-2.6-4.3-4.2-7.3-4.2
	c-3,0-5.8,1.6-7.3,4.2l-4.6,7.9c-3-1.1-6-1.9-9.1-2.4v-9.1c0-4.6-3.8-8.4-8.4-8.4s-8.4,3.8-8.4,8.4v9.1c-3.1,0.5-6.2,1.3-9.1,2.5
	l-4.6-7.9c-1.5-2.6-4.3-4.2-7.3-4.2c-3,0-5.8,1.6-7.3,4.2c-1.5,2.6-1.5,5.8,0,8.4l4.6,7.9c-2.4,2-4.7,4.3-6.7,6.7l-7.9-4.6
	c-4-2.3-9.1-0.9-11.4,3.1c-2.3,4-1,9.1,3,11.4l7.9,4.6c-1.1,3-1.9,6-2.4,9.1H193c-4.6,0-8.4,3.8-8.4,8.4c0,4.6,3.8,8.4,8.4,8.4h9.1
	c0.5,3.1,1.3,6.2,2.5,9.1l-7.9,4.6c-2.6,1.5-4.2,4.3-4.2,7.3c0,3,1.6,5.8,4.2,7.3c2.6,1.5,5.8,1.5,8.4,0l7.9-4.6
	c2,2.4,4.3,4.7,6.7,6.7l-4.6,7.9c-1.5,2.6-1.5,5.8,0,8.4c1.5,2.6,4.3,4.2,7.3,4.2c3,0,5.8-1.6,7.3-4.2l4.6-7.9c3,1.1,6,1.9,9.1,2.4
	v9.1c0,4.6,3.8,8.4,8.4,8.4c4.6,0,8.4-3.8,8.4-8.4V293c3.1-0.5,6.2-1.3,9.1-2.5l4.6,7.9c2.3,4,7.4,5.3,11.4,3
	c4-2.3,5.4-7.4,3.1-11.4l-4.6-7.9c2.4-2,4.7-4.3,6.7-6.7l7.9,4.6c2.6,1.5,5.8,1.5,8.4,0c2.6-1.5,4.2-4.3,4.2-7.3
	c0-3-1.6-5.8-4.2-7.3l-7.9-4.6c1.1-3,1.9-6,2.4-9.1h9.1c4.6,0,8.4-3.8,8.4-8.4C319,238.8,315.2,235,310.6,235L310.6,235z M251.8,277
	c-18.5,0-33.6-15-33.6-33.6s15-33.6,33.6-33.6s33.6,15,33.6,33.6S270.3,277,251.8,277z M243.4,226.6c4.6,0,8.4,3.8,8.4,8.4
	c0,4.6-3.8,8.4-8.4,8.4c-4.6,0-8.4-3.8-8.4-8.4C235,230.4,238.8,226.6,243.4,226.6z M134.3,226.6c4.6,0,8.4,3.8,8.4,8.4
	c0,4.6-3.8,8.4-8.4,8.4c-4.6,0-8.4-3.8-8.4-8.4C125.9,230.4,129.7,226.6,134.3,226.6z M117.5,277c4.6,0,8.4,3.8,8.4,8.4
	s-3.8,8.4-8.4,8.4c-4.6,0-8.4-3.8-8.4-8.4S112.9,277,117.5,277z M167.9,285.4c4.6,0,8.4,3.8,8.4,8.4c0,4.6-3.8,8.4-8.4,8.4
	c-4.6,0-8.4-3.8-8.4-8.4C159.5,289.1,163.2,285.4,167.9,285.4z M235,117.5c4.6,0,8.4,3.8,8.4,8.4c0,4.6-3.8,8.4-8.4,8.4
	c-4.6,0-8.4-3.8-8.4-8.4C226.6,121.3,230.4,117.5,235,117.5z M293.8,142.7c4.6,0,8.4,3.8,8.4,8.4c0,4.6-3.8,8.4-8.4,8.4
	c-4.6,0-8.4-3.8-8.4-8.4C285.4,146.4,289.1,142.7,293.8,142.7z"/>
</svg>
