<?xml version="1.0" encoding="utf-8"?>
<!-- Generator: Adobe Illustrator 24.1.1, SVG Export Plug-In . SVG Version: 6.00 Build 0)  -->
<svg version="1.1" id="Camada_1" xmlns="http://www.w3.org/2000/svg" xmlns:xlink="http://www.w3.org/1999/xlink" x="0px" y="0px"
	 viewBox="0 0 512 512" style="enable-background:new 0 0 512 512;" xml:space="preserve">
<style type="text/css">
	.st0{fill:url(#Page-1_1_);}
</style>
<linearGradient id="Page-1_1_" gradientUnits="userSpaceOnUse" x1="255.976" y1="512.0164" x2="255.976" y2="-9.094947e-13">
	<stop  offset="0" style="stop-color:#348EAC"/>
	<stop  offset="1" style="stop-color:#5DD39E"/>
</linearGradient>
<path id="Page-1" class="st0" d="M93.9,93.9c4.7,0,8.5-3.8,8.5-8.5v-8.5c0-4.7-3.8-8.5-8.5-8.5c-4.7,0-8.5,3.8-8.5,8.5v8.5
	C85.3,90,89.2,93.9,93.9,93.9z M93.9,110.9c-4.7,0-8.5,3.8-8.5,8.5v8.5c0,4.7,3.8,8.5,8.5,8.5c4.7,0,8.5-3.8,8.5-8.5v-8.5
	C102.4,114.8,98.6,110.9,93.9,110.9z M68.3,110.9h8.5c4.7,0,8.5-3.8,8.5-8.5c0-4.7-3.8-8.5-8.5-8.5h-8.5c-4.7,0-8.5,3.8-8.5,8.5
	C59.7,107.1,63.6,110.9,68.3,110.9z M110.9,110.9h8.5c4.7,0,8.5-3.8,8.5-8.5c0-4.7-3.8-8.5-8.5-8.5h-8.5c-4.7,0-8.5,3.8-8.5,8.5
	C102.4,107.1,106.2,110.9,110.9,110.9z M221.9,25.6c4.7,0,8.5-3.8,8.5-8.5V8.5c0-4.7-3.8-8.5-8.5-8.5c-4.7,0-8.5,3.8-8.5,8.5v8.5
	C213.3,21.8,217.2,25.6,221.9,25.6z M221.9,42.7c-4.7,0-8.5,3.8-8.5,8.5v8.5c0,4.7,3.8,8.5,8.5,8.5c4.7,0,8.5-3.8,8.5-8.5v-8.5
	C230.4,46.5,226.6,42.7,221.9,42.7z M196.3,42.7h8.5c4.7,0,8.5-3.8,8.5-8.5s-3.8-8.5-8.5-8.5h-8.5c-4.7,0-8.5,3.8-8.5,8.5
	S191.6,42.7,196.3,42.7z M238.9,42.7h8.5c4.7,0,8.5-3.8,8.5-8.5s-3.8-8.5-8.5-8.5h-8.5c-4.7,0-8.5,3.8-8.5,8.5
	S234.2,42.7,238.9,42.7z M102.4,298.7c4.7,0,8.5-3.8,8.5-8.5v-8.5c0-4.7-3.8-8.5-8.5-8.5c-4.7,0-8.5,3.8-8.5,8.5v8.5
	C93.9,294.8,97.7,298.7,102.4,298.7z M102.4,315.7c-4.7,0-8.5,3.8-8.5,8.5v8.5c0,4.7,3.8,8.5,8.5,8.5c4.7,0,8.5-3.8,8.5-8.5v-8.5
	C110.9,319.6,107.1,315.7,102.4,315.7z M85.3,298.7h-8.5c-4.7,0-8.5,3.8-8.5,8.5s3.8,8.5,8.5,8.5h8.5c4.7,0,8.5-3.8,8.5-8.5
	S90,298.7,85.3,298.7z M128,298.7h-8.5c-4.7,0-8.5,3.8-8.5,8.5s3.8,8.5,8.5,8.5h8.5c4.7,0,8.5-3.8,8.5-8.5S132.7,298.7,128,298.7z
	 M409.6,162.1c14.1,0,25.6,11.5,25.6,25.6c0,4.7,3.8,8.5,8.5,8.5c4.7,0,8.5-3.8,8.5-8.5c0-23.6-19.1-42.6-42.7-42.7
	c-4.7,0-8.5,3.8-8.5,8.5S404.9,162.1,409.6,162.1z M349.9,128.3c2.1,0,4.2-0.8,5.7-2.2c5.2-4.8,12.2-7.2,19.2-6.6
	c4.7,0.3,8.7-3.2,9.1-7.9s-3.1-8.8-7.8-9.2c-11.7-0.9-23.3,3.1-32,11c-2.6,2.4-3.5,6.1-2.2,9.4C343.2,126.2,346.3,128.3,349.9,128.3
	z M512,217.6c0-16.3-6.3-32-17.5-43.9c0.3-2.4,0.4-4.9,0.4-7.3c0-23.8-13.2-45.7-34.4-56.7c-2-23-16.2-43.2-37.3-52.8
	c-21.1-9.5-45.7-7-64.3,6.7c-7-2.6-14.4-3.9-21.9-3.9c-17,0-33.3,6.7-45.3,18.8c-29-6.7-58.7,7.5-71.9,34.1c-5-1.1-10-1.7-15.1-1.7
	c-37.7,0-68.2,30.6-68.3,68.3c0,1.4,0.1,2.8,0.2,4.3l-62.9,19.8C62,207,52.4,215.7,47.5,227l-44,101.5c-8,18.2-2.2,39.6,14,51.2
	l62.3,45.4c5.7,4.2,11.9,7.7,18.5,10.5l171.9,73.6c17.3,7.4,37.4-0.5,44.9-17.8c2.4-5.5,3.2-11.6,2.4-17.5l12.3,5.2
	c17.3,7.4,37.4-0.5,44.9-17.8c2.5-5.7,3.3-12.1,2.4-18.2c2.6,0.6,5.2,0.9,7.8,0.9c1.5,0,3.1-0.1,4.6-0.3h37.2
	c12.2,0.1,23.5-6.4,29.6-17c6.1-10.6,6-23.7-0.2-34.2h4.7c12.6,0,24.2-7,30.1-18.1c5.9-11.1,5.2-24.6-1.8-35.1
	c13.7-4.7,22.9-17.6,22.9-32.1c0-14.5-9.2-27.4-22.9-32.1c2.8-4.1,4.6-8.7,5.3-13.6C505.7,249.7,512,234,512,217.6L512,217.6z
	 M204.8,128c5.9,0,11.7,1,17.2,2.9c2.1,0.8,4.5,0.6,6.6-0.4c2-1,3.6-2.8,4.4-4.9c8.2-24.4,34.7-37.6,59.1-29.4c3.3,1,6.9,0,9.1-2.7
	c8.9-10.6,22.1-16.8,36-16.7c6.8,0,13.5,1.5,19.7,4.4c3.1,1.4,6.7,0.9,9.3-1.3c13.8-12.1,33.5-15,50.3-7.4
	c16.8,7.6,27.5,24.3,27.5,42.7c0,3.4,2.1,6.6,5.2,7.9c17.5,7.3,28.9,24.4,28.9,43.3c0,2.9-0.3,5.8-0.9,8.6c-0.6,2.9,0.4,6,2.6,8
	c15.6,14,19.8,36.7,10.2,55.4c-6.1-10.2-17.1-16.5-29-16.5H326.1c0.1-6-1.6-12-4.8-17.1h3c18.9,0,34.1-15.3,34.1-34.1
	s-15.3-34.1-34.1-34.1h-53.5c-22.6,0-44.4,8.1-61.5,22.9l-4.4,3.8c-4.9,0.7-9.7,1.8-14.4,3.3l-36.8,11.6
	C154.2,150.3,177,128,204.8,128L204.8,128z M298.2,187.7l-42-18c-7.3-3.1-14.9-5.3-22.7-6.4c11.4-6.3,24.2-9.7,37.3-9.7h53.5
	c9.4,0,17.1,7.6,17.1,17.1c0,9.4-7.6,17.1-17.1,17.1L298.2,187.7z M356.9,416.7l-0.1-0.1h-0.1l-133.6-57.2
	c-4.3-1.9-9.4,0.2-11.2,4.5c-1.9,4.3,0.2,9.4,4.5,11.2l133.8,57.3c4.1,1.8,7.4,5.1,9,9.3c1.7,4.2,1.6,8.8-0.2,12.9
	c-3.8,8.7-13.9,12.6-22.6,8.9l-39.3-16.8l-110.1-47.1c-4.3-1.9-9.3,0.2-11.2,4.5c-1.9,4.3,0.2,9.3,4.5,11.2l110.1,47.1
	c4.2,1.8,7.5,5.2,9.2,9.4c1.7,4.2,1.6,8.8-0.2,12.9c-3.8,8.6-13.9,12.6-22.6,8.9L105,420c-5.4-2.3-10.4-5.2-15.1-8.6l-62.3-45.4
	c-9.6-6.9-13.1-19.7-8.4-30.6l44-101.5c3-6.8,8.7-12,15.8-14.2l116.6-36.8c17.7-5.6,36.8-4.6,53.8,2.7l43.5,18.6l0.2,0.1l5.6,2.4
	c4.2,1.8,7.4,5.1,9.1,9.3s1.6,8.9-0.2,13c-3.8,8.6-13.9,12.6-22.6,8.9l-29.6-12.6c-8.3-3.5-17.7-3.7-26.1-0.4l-31.8,12.6l-12.5-5.4
	c-4.3-1.9-9.3,0.2-11.2,4.5s0.2,9.3,4.5,11.2l15.7,6.7l196.6,84.1c4.2,1.8,7.5,5.2,9.2,9.4c1.7,4.2,1.6,8.8-0.2,12.9
	c-3.8,8.7-13.9,12.6-22.6,8.9H377l-133.6-57.2c-4.3-1.9-9.3,0.2-11.2,4.5c-1.9,4.3,0.2,9.3,4.5,11.2l154.4,66.1
	c4.5,1.9,8.1,5.5,9.9,10c1.7,4.1,1.6,8.6-0.1,12.6c-4.1,8.8-14.6,12.6-23.4,8.5L356.9,416.7z M443.7,409.6c0,9.4-7.6,17.1-17.1,17.1
	h-11.7c0.5-1,1.1-1.9,1.6-3c3.6-8.2,3.7-17.5,0.3-25.7c-0.8-1.9-1.7-3.7-2.8-5.4h12.7C436.1,392.5,443.7,400.2,443.7,409.6
	L443.7,409.6z M472.9,370.5c-3.2,3.2-7.5,5-12.1,5l-50.4,0c8-9.4,10.1-22.5,5.4-33.9c0-0.1-0.1-0.2-0.1-0.2h45.2
	c6.9,0,13.1,4.2,15.7,10.5C479.2,358.2,477.7,365.6,472.9,370.5z M494.9,307.2c0,9.4-7.6,17.1-17.1,17.1H400c-0.9-0.5-1.7-1-2.6-1.4
	l-177.5-75.9l15.8-6.3c4.2-1.7,9-1.6,13.1,0.2l29.5,12.6c16,6.8,34.5,0.5,43.1-14.5h139.3c9.4,0,17.1,7.6,17.1,17.1
	c0,9.4-7.6,17.1-17.1,17.1H349.9c-4.7,0-8.5,3.8-8.5,8.5s3.8,8.5,8.5,8.5h128C487.3,290.1,494.9,297.8,494.9,307.2z"/>
</svg>
