<svg id="Camada_4" data-name="Camada 4" xmlns="http://www.w3.org/2000/svg" xmlns:xlink="http://www.w3.org/1999/xlink" viewBox="0 0 142 171"><defs><style>.cls-1{fill:url(#linear-gradient);}.cls-2{fill:#fff;}.cls-3{fill:none;}</style><linearGradient id="linear-gradient" x1="71" y1="4.36" x2="71" y2="152.63" gradientUnits="userSpaceOnUse"><stop offset="0" stop-color="#ffb371"/><stop offset="1" stop-color="#f44336"/></linearGradient></defs><path class="cls-1" d="M71,4.36A51.85,51.85,0,0,0,19.11,56.25C19.11,95.17,71,152.63,71,152.63s51.89-57.46,51.89-96.38A51.85,51.85,0,0,0,71,4.36Z"/><rect class="cls-2" x="89" y="34" width="18" height="40" rx="3.37"/><path class="cls-2" d="M52.67,94.23c0-5.94,3.63-9.27,4.65-13.23H43.09a8.36,8.36,0,0,1-8.33-8.13A10.15,10.15,0,0,1,37.48,66h0a11.66,11.66,0,0,1,1.3-11.12A11.06,11.06,0,0,1,41.09,44.4,7.44,7.44,0,0,1,42,38.16C44.81,34.06,51.88,34,57.86,34h.4C65,34,70.55,36.46,75,38.44c2.23,1,5.14,2.22,7.36,2.26A1.68,1.68,0,0,1,84,42.38v29.9a1.71,1.71,0,0,1-.51,1.21C78,79,75.57,84.75,71,89.3c-2.07,2.07-2.83,5.2-3.56,8.23-.62,2.59-1.92,8.09-4.74,8.09C59.38,105.62,52.67,104.5,52.67,94.23Z"/><rect class="cls-3" width="142" height="171"/></svg>