<svg id="Camada_2" data-name="Camada 2" xmlns="http://www.w3.org/2000/svg" xmlns:xlink="http://www.w3.org/1999/xlink" viewBox="0 0 142 171"><defs><style>.cls-1{fill:url(#linear-gradient);}.cls-2{fill:#fff;}.cls-3{fill:none;}</style><linearGradient id="linear-gradient" x1="71" y1="4.36" x2="71" y2="152.63" gradientUnits="userSpaceOnUse"><stop offset="0" stop-color="#c1f697"/><stop offset="1" stop-color="#00d181"/></linearGradient></defs><path class="cls-1" d="M71,4.36A51.85,51.85,0,0,0,19.11,56.25C19.11,95.17,71,152.63,71,152.63s51.89-57.46,51.89-96.38A51.85,51.85,0,0,0,71,4.36Z"/><rect class="cls-2" x="35" y="51" width="18" height="40" rx="3.37"/><path class="cls-2" d="M89.33,30.77c0,5.94-3.63,9.27-4.65,13.23H98.91a8.36,8.36,0,0,1,8.33,8.13A10.15,10.15,0,0,1,104.52,59h0a11.66,11.66,0,0,1-1.3,11.12,11.06,11.06,0,0,1-2.29,10.46,7.44,7.44,0,0,1-.86,6.24C97.19,90.94,90.12,91,84.14,91h-.4C77,91,71.45,88.54,67,86.56c-2.23-1-5.14-2.22-7.36-2.26A1.68,1.68,0,0,1,58,82.62V52.72a1.71,1.71,0,0,1,.51-1.21C64,46,66.43,40.25,71,35.7c2.07-2.07,2.83-5.2,3.56-8.23.62-2.59,1.92-8.09,4.74-8.09C82.62,19.38,89.33,20.5,89.33,30.77Z"/><rect class="cls-3" width="142" height="171"/></svg>